<svg width="309" height="302" viewBox="0 0 309 302" fill="none" xmlns="http://www.w3.org/2000/svg">
<path d="M154.599 265.353C220.42 265.353 273.778 262.238 273.778 258.395C273.778 254.552 220.42 251.437 154.599 251.437C88.7778 251.437 35.4194 254.552 35.4194 258.395C35.4194 262.238 88.7778 265.353 154.599 265.353Z" fill="#F5F5F5"/>
<path d="M215.605 102.999L209.508 100.54C209.508 100.54 201.462 115.213 199.157 115.956C196.022 116.964 189.531 119.767 185.683 120.259C185.16 120.874 184.306 122.785 184.386 123.48C189.555 125.207 200.915 122.914 203.349 121.107C208.887 117.007 215.605 102.999 215.605 102.999Z" fill="#E58A7B"/>
<path d="M217.48 99.6612C218.617 103.859 212.458 112.305 212.458 112.305L204.387 107.781C204.387 107.781 205.9 104.308 207.744 100.774C210.7 95.0634 216.183 94.8729 217.48 99.6612Z" fill="#4CAF4F"/>
<path opacity="0.2" d="M217.48 99.6612C218.617 103.859 212.458 112.305 212.458 112.305L204.387 107.781C204.387 107.781 205.9 104.308 207.744 100.774C210.7 95.0634 216.183 94.8729 217.48 99.6612Z" fill="black"/>
<path opacity="0.2" d="M207.59 109.588L210.768 111.371L211.327 101.616C209.477 103.036 208.174 107.314 207.59 109.588Z" fill="black"/>
<path d="M212.169 96.5018C212.169 96.5018 205.887 110.479 209.551 136.505H234.304C234.697 132.706 233.394 114.168 238.109 96.2682C235.393 95.7375 232.646 95.3864 229.884 95.2171C226.381 95.0141 222.87 95.0141 219.367 95.2171C216.939 95.4637 214.533 95.8931 212.169 96.5018Z" fill="#4CAF4F"/>
<path opacity="0.2" d="M212.169 96.5018C212.169 96.5018 205.887 110.479 209.551 136.505H234.304C234.697 132.706 233.394 114.168 238.109 96.2682C235.393 95.7375 232.646 95.3864 229.884 95.2171C226.381 95.0141 222.87 95.0141 219.367 95.2171C216.939 95.4637 214.533 95.8931 212.169 96.5018Z" fill="black"/>
<g style="mix-blend-mode:multiply">
<path d="M206.428 258.948C206.391 259.612 215.777 260.147 227.389 260.147C239 260.147 248.453 259.612 248.49 258.948C248.527 258.284 239.147 257.756 227.53 257.756C215.913 257.756 206.471 258.29 206.428 258.948Z" fill="#E8ECF1"/>
</g>
<path d="M222.951 241.505L218.561 243.205L222.343 252.974L226.733 251.275L222.951 241.505Z" fill="#E58A7B"/>
<path d="M242.528 254.221H237.9L236.203 243.508H240.832L242.528 254.221Z" fill="#E58A7B"/>
<path d="M237.58 253.687H242.78C242.87 253.687 242.957 253.719 243.026 253.778C243.095 253.836 243.14 253.917 243.155 254.006L243.825 258.118C243.839 258.222 243.831 258.327 243.801 258.426C243.771 258.526 243.72 258.618 243.651 258.696C243.582 258.774 243.497 258.837 243.402 258.879C243.307 258.921 243.204 258.943 243.1 258.942C241.286 258.911 240.414 258.801 238.127 258.801C236.719 258.801 233.824 258.948 231.87 258.948C229.915 258.948 229.786 257.03 230.591 256.852C234.205 256.071 235.607 255.008 236.812 253.975C237.024 253.789 237.297 253.686 237.58 253.687Z" fill="#263238"/>
<path d="M222.213 252.101L227.13 250.662C227.218 250.638 227.312 250.644 227.396 250.679C227.479 250.715 227.549 250.779 227.591 250.859L229.435 254.547C229.478 254.641 229.5 254.742 229.5 254.845C229.499 254.948 229.476 255.05 229.432 255.143C229.388 255.236 229.324 255.318 229.245 255.384C229.166 255.45 229.074 255.498 228.974 255.524C227.186 256.016 225.987 256.317 223.75 256.969C222.207 257.418 220.633 258.149 219.109 258.635C218.052 258.973 215.568 258.985 214.284 258.985C212.384 258.985 211.96 256.981 212.778 256.889C214.837 256.662 215.114 256.766 216.251 256.194C218.111 255.381 219.798 254.216 221.217 252.764C221.485 252.459 221.828 252.23 222.213 252.101Z" fill="#263238"/>
<path d="M186.457 120.234L181.368 118.102L179.272 123.744C181.358 124.062 183.48 124.062 185.566 123.744L186.457 120.234Z" fill="#E58A7B"/>
<path d="M177.582 117.954L177.446 121.704L179.272 123.732L181.368 118.089L177.582 117.954Z" fill="#E58A7B"/>
<path d="M223.553 242.335L219.149 244.035L221.1 249.087L225.504 247.387L223.553 242.335Z" fill="#CF6F64"/>
<path d="M240.832 243.508H236.203L237.082 249.033H241.711L240.832 243.508Z" fill="#CF6F64"/>
<path opacity="0.2" d="M208.764 129.467C208.856 130.579 208.961 131.717 209.096 132.884L227.499 126.91C230.373 126.058 232.871 124.252 234.58 121.79C234.654 120.148 234.746 118.421 234.888 116.62C234.949 115.747 235.023 114.85 235.103 113.94C235.183 113.03 235.293 112.022 235.41 111.051L208.764 129.467Z" fill="black"/>
<path d="M214.775 109.306L214.161 109.232C214.523 106.158 216.816 103.737 219.232 103.798V104.413C217.117 104.37 215.101 106.552 214.775 109.306Z" fill="white"/>
<path d="M218.052 114.979H217.947V114.364C220.062 114.444 222.047 112.237 222.373 109.49L222.988 109.564C222.662 112.569 220.443 114.979 218.052 114.979Z" fill="white"/>
<path d="M229.54 83.3723C228.673 86.7592 227.653 92.9612 229.884 95.2171C229.884 95.2171 228.323 98.6531 222.035 98.6531C216.288 98.6531 219.367 95.2171 219.367 95.2171C223.19 94.3197 223.258 91.5291 222.754 88.886L229.54 83.3723Z" fill="#E58A7B"/>
<path d="M226.774 85.6221L222.76 88.886C222.885 89.4934 222.957 90.1103 222.975 90.73C224.149 91.8979 226.503 88.9413 226.743 87.4292C226.865 86.8339 226.875 86.2212 226.774 85.6221Z" fill="#CF6F64"/>
<path d="M215.857 83.3293C216.137 83.8134 216.513 84.2346 216.962 84.5667C217.412 84.8988 217.925 85.1346 218.47 85.2594C219.945 85.5851 220.683 84.2267 220.277 82.8621C219.914 81.6328 218.703 79.9793 217.203 80.2621C216.882 80.3282 216.581 80.4704 216.326 80.6767C216.071 80.883 215.87 81.1474 215.738 81.4478C215.606 81.7482 215.548 82.0757 215.569 82.4031C215.59 82.7304 215.689 83.048 215.857 83.3293Z" fill="#CF6F64"/>
<path d="M218.298 72.4926C215.999 73.5437 215.187 82.6778 218.076 84.03C220.965 85.3823 222.649 70.4949 218.298 72.4926Z" fill="#263238"/>
<path d="M230.241 78.2767C229.687 82.8621 229.626 85.5606 227.167 87.9086C226.405 88.6878 225.443 89.2413 224.386 89.508C223.33 89.7747 222.22 89.7442 221.18 89.4198C220.139 89.0955 219.209 88.49 218.491 87.6701C217.773 86.8502 217.295 85.8479 217.111 84.7738C216.367 80.6555 217.394 73.851 221.992 72.0254C222.958 71.5993 224.02 71.4394 225.069 71.5621C226.118 71.6849 227.114 72.0859 227.956 72.7236C228.797 73.3613 229.453 74.2125 229.855 75.1889C230.256 76.1653 230.39 77.2314 230.241 78.2767Z" fill="#E58A7B"/>
<path d="M222.686 74.8652C226.092 73.9985 228.593 73.4084 227.696 76.2421C226.51 80.0285 225.084 83.692 226.995 83.8579C228.163 83.9624 233.326 81.7742 232.669 79.5552C232.097 77.6251 234.513 77.0965 234.943 76.1192C236.535 72.5786 231.98 73.0458 232.792 70.8944C233.603 68.7431 229.104 65.2763 226.645 67.0035C222.643 69.7942 215.777 69.7511 219.386 65.1595C221.973 61.8833 217.357 62.5533 217.357 62.5533C217.357 62.5533 220.148 64.2068 215.452 66.7638C210.485 69.493 215.04 76.826 222.686 74.8652Z" fill="#263238"/>
<path d="M232.048 83.3293C231.376 84.302 230.366 84.99 229.214 85.2594C227.696 85.5851 227.112 84.2267 227.684 82.8621C228.194 81.6328 229.595 79.9793 231.046 80.2621C232.497 80.5448 232.828 82.1245 232.048 83.3293Z" fill="#E58A7B"/>
<path d="M209.551 136.505C209.551 136.505 205.396 173.693 205.07 187.806C204.738 202.484 219.152 248.284 219.152 248.284L226.528 245.21C226.528 245.21 217.923 203.363 219.152 188.949C220.455 173.232 225.84 136.529 225.84 136.529L209.551 136.505Z" fill="#4CAF4F"/>
<path opacity="0.2" d="M219.877 146.715C216.564 153.587 218.795 167.177 220.59 175.229C221.273 169.544 222.084 163.372 222.852 157.662C222.779 148.884 222.096 142.105 219.877 146.715Z" fill="black"/>
<path d="M226.202 242.776C226.239 242.776 227.075 245.124 227.075 245.124L218.568 248.701L217.228 246.206L226.202 242.776Z" fill="#4CAF4F"/>
<path d="M218.334 136.505C218.334 136.505 221.512 171.873 223.615 185.12C225.926 199.632 234.986 247.964 234.986 247.964H243.462C243.462 247.964 238.385 200.806 237.426 186.435C236.381 170.847 234.304 136.505 234.304 136.505H218.334Z" fill="#4CAF4F"/>
<path d="M243.591 245.757C243.628 245.757 243.874 248.124 243.874 248.124H234.556L233.892 245.407L243.591 245.757Z" fill="#4CAF4F"/>
<path opacity="0.2" d="M240.346 242.954C240.327 242.955 240.308 242.948 240.293 242.935C240.279 242.923 240.269 242.906 240.266 242.887C240.217 242.456 235.638 199.859 234.777 186.951C233.843 172.949 231.962 141.889 231.943 141.576C231.943 141.566 231.944 141.555 231.947 141.546C231.95 141.536 231.956 141.527 231.963 141.52C231.97 141.512 231.978 141.506 231.987 141.502C231.997 141.498 232.007 141.496 232.017 141.496C232.037 141.496 232.057 141.504 232.072 141.517C232.086 141.531 232.095 141.55 232.097 141.57C232.097 141.883 233.996 172.918 234.931 186.945C235.791 199.853 240.371 242.42 240.414 242.881C240.415 242.891 240.415 242.901 240.412 242.911C240.41 242.921 240.405 242.93 240.399 242.939C240.393 242.947 240.385 242.953 240.375 242.958C240.366 242.963 240.356 242.966 240.346 242.967V242.954Z" fill="black"/>
<path d="M223.209 79.5552C223.209 79.9302 222.975 80.2314 222.729 80.2314C222.484 80.2314 222.305 79.9302 222.33 79.5552C222.354 79.1803 222.563 78.8791 222.809 78.8791C223.055 78.8791 223.233 79.1864 223.209 79.5552Z" fill="#263238"/>
<path d="M218.992 79.5552C218.992 79.9302 218.752 80.2314 218.513 80.2314C218.273 80.2314 218.089 79.9302 218.107 79.5552C218.125 79.1803 218.347 78.8791 218.593 78.8791C218.838 78.8791 219.017 79.1864 218.992 79.5552Z" fill="#263238"/>
<path d="M220.32 79.7457C219.807 80.8907 219.145 81.9632 218.353 82.9359C218.968 83.5506 220.117 83.2678 220.117 83.2678L220.32 79.7457Z" fill="#DF5753"/>
<path d="M220.43 84.8353C220.416 84.8353 220.402 84.8324 220.389 84.8268C220.376 84.8211 220.364 84.8129 220.354 84.8025C220.345 84.7922 220.337 84.7799 220.332 84.7665C220.327 84.7531 220.325 84.7389 220.326 84.7246C220.328 84.6947 220.341 84.6666 220.362 84.646C220.384 84.6254 220.413 84.6139 220.443 84.614C220.913 84.6172 221.378 84.5151 221.803 84.3152C222.229 84.1152 222.604 83.8224 222.901 83.4584C222.923 83.4398 222.95 83.4296 222.978 83.4296C223.007 83.4296 223.034 83.4398 223.055 83.4584C223.075 83.479 223.086 83.5066 223.086 83.5352C223.086 83.5639 223.075 83.5914 223.055 83.6121C222.737 83.999 222.336 84.3096 221.882 84.5213C221.427 84.733 220.932 84.8403 220.43 84.8353Z" fill="#263238"/>
<path d="M223.959 78.4242C223.929 78.4393 223.897 78.4472 223.863 78.4472C223.83 78.4472 223.798 78.4393 223.768 78.4242C223.538 78.2756 223.277 78.1831 223.004 78.1543C222.732 78.1254 222.457 78.1611 222.201 78.2583C222.176 78.2707 222.149 78.2781 222.121 78.2799C222.093 78.2817 222.065 78.2779 222.039 78.2687C222.012 78.2596 221.988 78.2452 221.967 78.2265C221.947 78.2078 221.93 78.1852 221.918 78.1599C221.895 78.1052 221.895 78.0438 221.916 77.9887C221.938 77.9336 221.981 77.8891 222.035 77.8649C222.356 77.7336 222.704 77.6819 223.05 77.714C223.396 77.7461 223.729 77.8611 224.02 78.0493C224.044 78.0653 224.064 78.0858 224.079 78.1097C224.095 78.1336 224.106 78.1603 224.111 78.1883C224.116 78.2163 224.116 78.2451 224.109 78.2729C224.103 78.3008 224.092 78.3271 224.076 78.3505C224.044 78.3857 224.004 78.4113 223.959 78.4242Z" fill="#263238"/>
<path d="M217.363 77.1948C217.331 77.1869 217.301 77.1699 217.277 77.1457C217.257 77.1256 217.241 77.1017 217.229 77.0753C217.218 77.0489 217.213 77.0206 217.213 76.992C217.213 76.9634 217.218 76.935 217.229 76.9086C217.241 76.8823 217.257 76.8584 217.277 76.8383C217.513 76.5741 217.806 76.3678 218.135 76.2356C218.463 76.1034 218.817 76.0488 219.17 76.0761C219.199 76.0805 219.226 76.0906 219.25 76.1059C219.274 76.1211 219.295 76.1412 219.311 76.1648C219.327 76.1884 219.338 76.2151 219.344 76.2432C219.349 76.2713 219.349 76.3002 219.343 76.3281C219.329 76.3851 219.296 76.4352 219.248 76.4692C219.201 76.5031 219.142 76.5185 219.084 76.5125C218.805 76.4949 218.525 76.5411 218.267 76.6476C218.008 76.7541 217.777 76.9181 217.591 77.1272C217.563 77.1583 217.527 77.1811 217.487 77.193C217.446 77.205 217.404 77.2056 217.363 77.1948Z" fill="#263238"/>
<path d="M240.487 102.317L234.095 100.614C234.095 100.614 227.825 116.048 225.606 117.05C222.594 118.427 214.966 123.197 211.721 125.453C211.542 126.221 211.684 128.256 212.089 128.815C217.621 127.807 228.212 123.732 230.425 121.66C235.472 116.934 240.487 102.317 240.487 102.317Z" fill="#E58A7B"/>
<path d="M236.025 254.498C235.713 254.523 235.402 254.438 235.146 254.258C235.067 254.187 235.007 254.096 234.974 253.994C234.941 253.893 234.934 253.785 234.955 253.68C234.959 253.615 234.981 253.552 235.017 253.498C235.054 253.444 235.105 253.401 235.164 253.373C235.681 253.109 237.125 254.025 237.291 254.129C237.309 254.14 237.323 254.157 237.331 254.177C237.339 254.197 237.34 254.219 237.334 254.24C237.329 254.261 237.318 254.281 237.303 254.297C237.288 254.313 237.269 254.325 237.248 254.332C236.847 254.43 236.437 254.486 236.025 254.498ZM235.41 253.539C235.364 253.529 235.315 253.529 235.269 253.539C235.245 253.551 235.226 253.57 235.213 253.592C235.199 253.615 235.193 253.642 235.195 253.668C235.179 253.74 235.181 253.814 235.203 253.884C235.224 253.954 235.264 254.018 235.318 254.068C235.558 254.283 236.16 254.307 236.953 254.154C236.481 253.843 235.949 253.633 235.392 253.539H235.41Z" fill="#4CAF4F"/>
<path d="M237.217 254.332C237.201 254.337 237.184 254.337 237.168 254.332C236.707 254.074 235.84 253.06 235.969 252.543C235.989 252.461 236.035 252.388 236.101 252.336C236.167 252.284 236.248 252.255 236.332 252.254C236.415 252.243 236.498 252.25 236.578 252.275C236.658 252.299 236.731 252.34 236.793 252.396C237.303 252.832 237.334 254.172 237.334 254.24C237.337 254.26 237.333 254.281 237.323 254.298C237.313 254.316 237.298 254.33 237.279 254.338C237.258 254.342 237.237 254.34 237.217 254.332ZM236.394 252.457H236.351C236.209 252.457 236.191 252.537 236.185 252.568C236.111 252.869 236.658 253.637 237.113 254C237.111 253.481 236.95 252.975 236.652 252.549C236.58 252.487 236.488 252.454 236.394 252.457Z" fill="#4CAF4F"/>
<path d="M219.705 253.73C219.329 253.861 218.92 253.861 218.543 253.73C218.458 253.683 218.386 253.616 218.333 253.535C218.28 253.453 218.249 253.359 218.242 253.262C218.234 253.202 218.242 253.14 218.265 253.083C218.287 253.026 218.324 252.976 218.371 252.937C218.863 252.494 220.873 252.937 221.1 253.023C221.122 253.028 221.141 253.041 221.155 253.059C221.168 253.077 221.175 253.099 221.174 253.121C221.175 253.144 221.169 253.167 221.157 253.187C221.145 253.206 221.128 253.222 221.107 253.232C220.654 253.436 220.185 253.603 219.705 253.73ZM218.703 252.998C218.633 253.012 218.567 253.044 218.513 253.09C218.493 253.105 218.478 253.125 218.469 253.148C218.461 253.171 218.459 253.195 218.464 253.219C218.468 253.284 218.488 253.346 218.522 253.401C218.556 253.456 218.604 253.501 218.66 253.533C218.986 253.705 219.742 253.57 220.719 253.158C220.061 252.992 219.379 252.938 218.703 252.998Z" fill="#4CAF4F"/>
<path d="M221.088 253.232H221.039C220.424 253.121 219.195 252.414 219.158 251.886C219.158 251.763 219.213 251.59 219.508 251.492C219.608 251.457 219.714 251.442 219.82 251.448C219.925 251.454 220.028 251.482 220.123 251.529C220.787 251.855 221.137 253.035 221.156 253.09C221.16 253.109 221.16 253.128 221.154 253.147C221.149 253.165 221.139 253.181 221.125 253.195C221.116 253.21 221.103 253.222 221.088 253.232ZM219.631 251.677H219.57C219.379 251.744 219.379 251.824 219.379 251.849C219.379 252.168 220.271 252.752 220.891 252.949C220.748 252.455 220.446 252.023 220.031 251.72C219.908 251.657 219.765 251.641 219.631 251.677Z" fill="#4CAF4F"/>
<path d="M212.243 125.09L205.832 128.041L205.088 129.885L207.455 131.477C207.455 131.477 211.88 130.997 213.14 128.151L212.243 125.09Z" fill="#E58A7B"/>
<path d="M212.514 128.92C212.37 127.688 211.964 126.501 211.321 125.441L212.335 124.679C213.098 125.901 213.585 127.275 213.761 128.705L212.514 128.92Z" fill="#263238"/>
<path d="M213.608 125.963C213.743 126.176 213.81 126.426 213.798 126.678C213.787 126.931 213.698 127.174 213.544 127.374C213.389 127.574 213.177 127.721 212.936 127.796C212.695 127.872 212.436 127.871 212.196 127.794C211.955 127.717 211.744 127.568 211.591 127.367C211.439 127.165 211.351 126.922 211.342 126.67C211.332 126.417 211.4 126.168 211.538 125.956C211.675 125.744 211.874 125.579 212.108 125.484C212.37 125.35 212.675 125.325 212.956 125.415C213.237 125.505 213.471 125.702 213.608 125.963Z" fill="#263238"/>
<path d="M201.498 130.426L202.353 131.286L208.106 128.828L205.832 128.041L201.498 130.426Z" fill="#E58A7B"/>
<path opacity="0.2" d="M226.202 242.776C226.239 242.776 227.075 245.124 227.075 245.124L218.568 248.701L217.228 246.206L226.202 242.776Z" fill="black"/>
<path opacity="0.2" d="M243.591 245.757C243.628 245.757 243.874 248.124 243.874 248.124H234.556L233.892 245.407L243.591 245.757Z" fill="black"/>
<path d="M242.153 100.546C243.843 105.999 237.236 113.455 237.236 113.455L228.108 109.73C229.19 106.578 230.437 103.486 231.845 100.466C234.648 94.4242 240.444 95.045 242.153 100.546Z" fill="#4CAF4F"/>
<path opacity="0.2" d="M242.153 100.546C243.843 105.999 237.236 113.455 237.236 113.455L228.108 109.73C229.19 106.578 230.437 103.486 231.845 100.466C234.648 94.4242 240.444 95.045 242.153 100.546Z" fill="black"/>
<path d="M151.452 45.9202H147.524V46.5533H151.452V45.9202Z" fill="#4CAF4F"/>
<path d="M202.296 70.9783L201.821 81.5277L202.454 81.5562L202.929 71.0068L202.296 70.9783Z" fill="#4CAF4F"/>
<path d="M201.074 48.76H128.543L121.794 199.798H194.325L201.074 48.76Z" fill="#4CAF4F"/>
<path opacity="0.56" d="M198.911 50.8375H126.379L119.63 201.875H192.162L198.911 50.8375Z" fill="#FAFAFA"/>
<path opacity="0.07" d="M196.747 52.9091H124.215L117.46 203.947H189.992L196.747 52.9091Z" fill="#4CAF4F"/>
<path d="M188.492 118.784H126.582L126.066 130.34H187.976L188.492 118.784Z" fill="white"/>
<path d="M160.629 110.35H126.957L126.729 115.52H160.401L160.629 110.35Z" fill="#4CAF4F"/>
<path d="M187.097 149.972H125.187L124.67 161.528H186.58L187.097 149.972Z" fill="white"/>
<path opacity="0.47" d="M175.744 177.135H134.112L133.491 190.983H175.123L175.744 177.135Z" fill="#4CAF4F"/>
<path d="M172.959 193.135H131.327C131.309 193.14 131.29 193.14 131.272 193.135C131.266 193.117 131.266 193.097 131.272 193.08L131.887 179.225C131.887 179.215 131.888 179.206 131.892 179.197C131.896 179.189 131.902 179.181 131.908 179.175C131.915 179.168 131.924 179.163 131.933 179.16C131.941 179.157 131.951 179.156 131.96 179.157H173.592C173.6 179.153 173.608 179.151 173.617 179.151C173.625 179.151 173.634 179.153 173.641 179.157C173.646 179.165 173.648 179.173 173.648 179.182C173.648 179.19 173.646 179.199 173.641 179.206L173.039 193.092C173.032 193.106 173.02 193.118 173.006 193.126C172.992 193.133 172.975 193.137 172.959 193.135ZM131.401 192.987H172.885L173.5 179.28H132.016L131.401 192.987Z" fill="white"/>
<path d="M153.357 141.539H125.562L125.334 146.715H153.124L153.357 141.539Z" fill="#4CAF4F"/>
<path d="M174.951 81.4546C174.792 84.8177 173.596 88.0492 171.527 90.7054C169.995 92.7118 168.025 94.3406 165.766 95.4669C163.507 96.5931 161.02 97.1869 158.496 97.2025C156.456 97.2181 154.435 96.8159 152.557 96.0207C150.678 95.2255 148.982 94.0542 147.574 92.5788C146.165 91.1035 145.074 89.3554 144.366 87.4422C143.659 85.5291 143.351 83.4913 143.461 81.4546C143.677 77.2281 145.5 73.2438 148.556 70.3166C151.612 67.3893 155.672 65.7402 159.903 65.7066C161.945 65.6875 163.968 66.0873 165.849 66.8811C167.729 67.6749 169.427 68.846 170.838 70.3219C172.248 71.7978 173.34 73.5471 174.048 75.462C174.755 77.3768 175.063 79.4163 174.951 81.4546Z" fill="white"/>
<path d="M176.432 69.0012C176.392 69.8955 176.074 70.755 175.522 71.4599C175.114 71.9928 174.59 72.4255 173.989 72.7248C173.388 73.0242 172.727 73.1823 172.056 73.1872C171.405 73.1911 170.764 73.0358 170.187 72.7347C169.611 72.4336 169.117 71.9959 168.749 71.4599C168.261 70.7357 168.02 69.8735 168.06 69.0012C168.12 67.8791 168.605 66.8219 169.417 66.0452C170.229 65.2685 171.307 64.8308 172.431 64.8215C172.973 64.8165 173.51 64.9226 174.01 65.1332C174.509 65.3439 174.96 65.6545 175.335 66.0461C175.71 66.4377 176.001 66.9019 176.189 67.4102C176.378 67.9184 176.461 68.4599 176.432 69.0012Z" fill="#4CAF4F"/>
<path d="M133.251 124.562C133.222 125.057 133.005 125.523 132.646 125.865C132.287 126.207 131.811 126.4 131.315 126.406C131.075 126.409 130.838 126.362 130.617 126.27C130.396 126.177 130.196 126.04 130.03 125.867C129.864 125.694 129.736 125.489 129.652 125.265C129.569 125.04 129.532 124.801 129.545 124.562C129.571 124.065 129.787 123.598 130.147 123.255C130.507 122.912 130.984 122.72 131.481 122.718C131.72 122.716 131.957 122.763 132.178 122.856C132.398 122.948 132.598 123.085 132.763 123.258C132.929 123.431 133.058 123.635 133.142 123.86C133.226 124.084 133.263 124.323 133.251 124.562Z" fill="#263238"/>
<path d="M141.537 124.562C141.509 125.058 141.293 125.524 140.934 125.867C140.574 126.209 140.097 126.402 139.601 126.406C139.362 126.408 139.125 126.361 138.905 126.268C138.684 126.175 138.485 126.038 138.32 125.865C138.155 125.692 138.027 125.487 137.944 125.263C137.86 125.039 137.824 124.8 137.837 124.562C137.863 124.066 138.078 123.6 138.436 123.257C138.795 122.915 139.271 122.722 139.767 122.718C140.006 122.715 140.244 122.761 140.465 122.854C140.686 122.946 140.885 123.083 141.051 123.256C141.217 123.429 141.346 123.634 141.43 123.859C141.513 124.083 141.55 124.322 141.537 124.562Z" fill="#263238"/>
<path d="M149.829 124.562C149.801 125.058 149.585 125.524 149.225 125.867C148.866 126.209 148.389 126.402 147.893 126.406C147.653 126.408 147.416 126.361 147.196 126.268C146.975 126.175 146.776 126.038 146.61 125.865C146.444 125.693 146.316 125.488 146.232 125.264C146.148 125.04 146.111 124.801 146.122 124.562C146.151 124.066 146.366 123.599 146.726 123.257C147.086 122.914 147.562 122.722 148.059 122.718C148.298 122.715 148.536 122.761 148.757 122.854C148.978 122.946 149.177 123.083 149.343 123.256C149.509 123.429 149.638 123.634 149.721 123.859C149.805 124.083 149.842 124.322 149.829 124.562Z" fill="#263238"/>
<path d="M131.856 155.75C131.826 156.246 131.61 156.711 131.251 157.053C130.891 157.396 130.416 157.589 129.92 157.594C129.68 157.596 129.443 157.549 129.223 157.456C129.002 157.363 128.803 157.226 128.637 157.054C128.471 156.881 128.343 156.677 128.259 156.452C128.175 156.228 128.138 155.989 128.149 155.75C128.177 155.254 128.393 154.788 128.753 154.445C129.112 154.103 129.589 153.91 130.086 153.906C130.325 153.904 130.562 153.951 130.783 154.044C131.003 154.137 131.202 154.274 131.368 154.447C131.534 154.619 131.663 154.824 131.746 155.048C131.83 155.272 131.868 155.511 131.856 155.75Z" fill="#263238"/>
<path d="M140.142 155.75C140.114 156.245 139.899 156.711 139.54 157.053C139.182 157.395 138.707 157.589 138.212 157.594C137.972 157.597 137.734 157.551 137.513 157.458C137.293 157.366 137.093 157.229 136.927 157.056C136.761 156.883 136.632 156.678 136.549 156.453C136.465 156.229 136.429 155.99 136.441 155.75C136.469 155.254 136.685 154.788 137.045 154.445C137.404 154.103 137.881 153.91 138.378 153.906C138.617 153.904 138.854 153.951 139.074 154.044C139.294 154.137 139.493 154.274 139.658 154.447C139.823 154.62 139.952 154.825 140.035 155.049C140.118 155.273 140.154 155.512 140.142 155.75Z" fill="#263238"/>
<path d="M148.452 155.75C148.424 156.246 148.208 156.713 147.849 157.055C147.489 157.398 147.012 157.59 146.516 157.594C146.277 157.595 146.04 157.548 145.82 157.455C145.6 157.361 145.401 157.224 145.235 157.052C145.07 156.879 144.941 156.675 144.857 156.451C144.773 156.228 144.735 155.989 144.746 155.75C144.775 155.255 144.991 154.789 145.351 154.447C145.71 154.105 146.186 153.912 146.682 153.906C146.921 153.903 147.159 153.95 147.38 154.042C147.601 154.135 147.801 154.272 147.966 154.445C148.132 154.618 148.261 154.823 148.345 155.047C148.428 155.272 148.465 155.511 148.452 155.75Z" fill="#263238"/>
<path d="M156.726 155.75C156.696 156.246 156.48 156.711 156.121 157.053C155.761 157.396 155.286 157.589 154.789 157.594C154.55 157.595 154.314 157.548 154.093 157.455C153.873 157.361 153.674 157.224 153.509 157.052C153.343 156.879 153.215 156.675 153.13 156.451C153.046 156.228 153.008 155.989 153.019 155.75C153.049 155.255 153.265 154.789 153.624 154.447C153.984 154.105 154.459 153.912 154.955 153.906C155.195 153.904 155.432 153.951 155.652 154.044C155.873 154.137 156.072 154.274 156.238 154.447C156.404 154.619 156.532 154.824 156.616 155.048C156.7 155.272 156.737 155.511 156.726 155.75Z" fill="#263238"/>
<path d="M165.048 155.75C165.019 156.246 164.803 156.711 164.443 157.053C164.084 157.396 163.608 157.589 163.112 157.594C162.872 157.597 162.635 157.551 162.414 157.458C162.193 157.366 161.993 157.229 161.827 157.056C161.662 156.883 161.533 156.678 161.449 156.453C161.366 156.229 161.329 155.99 161.342 155.75C161.37 155.254 161.586 154.788 161.945 154.445C162.305 154.103 162.781 153.91 163.278 153.906C163.517 153.904 163.755 153.951 163.975 154.044C164.196 154.137 164.395 154.274 164.561 154.447C164.726 154.619 164.855 154.824 164.939 155.048C165.023 155.272 165.06 155.511 165.048 155.75Z" fill="#263238"/>
<path d="M163.79 80.6343C166.363 78.1184 166.5 74.0857 164.095 71.6271C161.691 69.1684 157.656 69.2148 155.083 71.7307C152.511 74.2466 152.374 78.2793 154.779 80.7379C157.183 83.1966 161.218 83.1502 163.79 80.6343Z" fill="#4CAF4F"/>
<path d="M171.527 90.7054C169.995 92.7118 168.025 94.3406 165.766 95.4668C163.507 96.5931 161.02 97.1868 158.496 97.2025C156.048 97.2232 153.633 96.6414 151.464 95.5084C149.294 94.3753 147.436 92.7258 146.055 90.7054C149.042 87.7303 153.769 85.788 159.006 85.788C164.243 85.788 168.804 87.7303 171.527 90.7054Z" fill="#4CAF4F"/>
<path opacity="0.1" d="M163.79 80.6343C166.363 78.1184 166.5 74.0857 164.095 71.6271C161.691 69.1684 157.656 69.2148 155.083 71.7307C152.511 74.2466 152.374 78.2793 154.779 80.7379C157.183 83.1966 161.218 83.1502 163.79 80.6343Z" fill="white"/>
<path opacity="0.1" d="M171.527 90.7054C169.995 92.7118 168.025 94.3406 165.766 95.4668C163.507 96.5931 161.02 97.1868 158.496 97.2025C156.048 97.2232 153.633 96.6414 151.464 95.5084C149.294 94.3753 147.436 92.7258 146.055 90.7054C149.042 87.7303 153.769 85.788 159.006 85.788C164.243 85.788 168.804 87.7303 171.527 90.7054Z" fill="white"/>
<path d="M81.0898 133.124C80.5059 134.403 79.8912 135.81 79.3564 137.175C78.8216 138.539 78.2746 139.947 77.8013 141.349C76.8349 144.11 76.0989 146.948 75.6008 149.831L75.4655 150.735C75.4526 150.89 75.4672 151.046 75.5085 151.196C75.6536 151.705 75.8821 152.187 76.1847 152.622C76.9741 153.747 77.8898 154.778 78.9138 155.695C79.9936 156.699 81.1262 157.645 82.3069 158.529C83.487 159.438 84.7287 160.324 85.9519 161.159L84.8024 163.317C81.8816 162.044 79.1093 160.455 76.5351 158.578C75.1617 157.576 73.9223 156.403 72.847 155.086C72.2096 154.303 71.7126 153.415 71.3779 152.462C71.1833 151.866 71.0838 151.244 71.0829 150.618C71.0829 150.47 71.0829 150.255 71.0829 150.151V149.849L71.1444 149.235C71.4967 146.032 72.1701 142.873 73.1543 139.806C73.6338 138.294 74.144 136.788 74.7279 135.319C75.3119 133.849 75.9142 132.411 76.658 130.917L81.0898 133.124Z" fill="#E58A7B"/>
<path d="M85.0852 160.778L89.4309 158.578L88.3061 163.348C88.3061 163.348 85.3249 164.184 83.9419 162.733L85.0852 160.778Z" fill="#E58A7B"/>
<path d="M93.4079 159.358L92.2523 163.305L88.3061 163.348L89.4309 158.578L93.4079 159.358Z" fill="#E58A7B"/>
<path d="M99.5424 110.111C99.7748 110.963 100.098 111.787 100.507 112.569C100.388 112.705 100.234 112.806 100.062 112.861C99.8899 112.916 99.7061 112.924 99.5301 112.883L99.5424 110.111Z" fill="#DF5753"/>
<path d="M99.4133 110.148C99.6679 110.148 99.8743 109.831 99.8743 109.441C99.8743 109.05 99.6679 108.734 99.4133 108.734C99.1587 108.734 98.9523 109.05 98.9523 109.441C98.9523 109.831 99.1587 110.148 99.4133 110.148Z" fill="#263238"/>
<path d="M99.2781 108.758L100.212 108.494C100.212 108.494 99.7575 109.219 99.2781 108.758Z" fill="#263238"/>
<path d="M87.5378 114.622C88.0971 117.481 88.6565 122.724 86.6526 124.635C86.6526 124.635 87.4394 127.537 92.7564 127.537C98.6019 127.537 95.547 124.635 95.547 124.635C92.3568 123.873 92.4367 121.507 92.9961 119.282L87.5378 114.622Z" fill="#E58A7B"/>
<path d="M85.9826 108.107C86.2777 112.883 86.3023 114.911 88.7118 117.364C92.3445 121.052 98.147 119.65 99.2842 114.905C100.311 110.602 99.6592 103.521 94.9815 101.622C93.9547 101.199 92.837 101.045 91.7341 101.174C90.6312 101.304 89.5795 101.713 88.6786 102.362C87.7776 103.011 87.0572 103.879 86.5855 104.885C86.1137 105.89 85.9062 106.999 85.9826 108.107Z" fill="#E58A7B"/>
<path d="M86.456 102.735C84.0587 103.607 80.8624 102.956 82.1163 110.35C83.444 118.181 81.4033 120.757 81.4033 120.757C81.4033 120.757 90.4944 122.693 99.776 120.64C99.776 120.64 96.9423 115.686 97.7352 112.035C98.7495 107.425 97.9504 105.722 97.9504 105.722C97.9504 105.722 89.8244 101.505 86.456 102.735Z" fill="#263238"/>
<path d="M96.5981 110.596C96.6006 111.504 96.8606 112.393 97.348 113.159C97.9995 114.155 98.7679 113.774 98.9584 112.717C99.1305 111.789 99.0015 110.148 98.1717 109.508C97.3418 108.869 96.6104 109.496 96.5981 110.596Z" fill="#E58A7B"/>
<path d="M84.3722 103.54C83.6838 101.604 86.9661 98.6224 93.9119 99.8518C100.858 101.081 101.159 106.865 101.159 106.865L99.7575 105.193L99.819 106.951L92.6826 108.322L84.3722 103.54Z" fill="#263238"/>
<path d="M84.9623 124.961C84.9213 124.681 84.9915 124.395 85.158 124.165C85.3245 123.936 85.5741 123.78 85.8536 123.732C88.0172 123.375 92.9346 122.65 95.4056 122.994C97.2496 123.252 97.7291 124.322 97.809 125.201C97.8215 125.355 97.8009 125.51 97.7486 125.655C97.6963 125.8 97.6136 125.933 97.5058 126.043C97.3981 126.154 97.2679 126.24 97.1241 126.296C96.9802 126.353 96.826 126.377 96.6719 126.369L85.9888 125.889C85.7369 125.877 85.4972 125.777 85.3102 125.608C85.1231 125.439 85.0002 125.211 84.9623 124.961Z" fill="#4CAF4F"/>
<path opacity="0.6" d="M84.9623 124.961C84.9213 124.681 84.9915 124.395 85.158 124.165C85.3245 123.936 85.5741 123.78 85.8536 123.732C88.0172 123.375 92.9346 122.65 95.4056 122.994C97.2496 123.252 97.7291 124.322 97.809 125.201C97.8215 125.355 97.8009 125.51 97.7486 125.655C97.6963 125.8 97.6136 125.933 97.5058 126.043C97.3981 126.154 97.2679 126.24 97.1241 126.296C96.9802 126.353 96.826 126.377 96.6719 126.369L85.9888 125.889C85.7369 125.877 85.4972 125.777 85.3102 125.608C85.1231 125.439 85.0002 125.211 84.9623 124.961Z" fill="black"/>
<path d="M91.1398 232.345L95.1044 235.099L101.737 226.106L97.7721 223.358L91.1398 232.345Z" fill="#E58A7B"/>
<path d="M81.895 232.167L86.081 234.552L91.9511 225.043L87.7652 222.658L81.895 232.167Z" fill="#E58A7B"/>
<path d="M101.731 226.106L98.313 230.741L94.3484 227.993L97.766 223.358L101.731 226.106Z" fill="#CF6F64"/>
<path d="M87.7591 222.658L91.9512 225.049L88.927 229.948L84.7349 227.557L87.7591 222.658Z" fill="#CF6F64"/>
<path d="M94.4836 154.982C94.4836 154.982 109.961 174.486 107.054 193.141C104.712 208.207 91.1275 228.608 91.1275 228.608L84.741 225.436C89.2426 216.416 93.0841 207.081 96.2354 197.505C97.2072 194.532 97.4908 191.377 97.0649 188.279C96.639 185.18 95.5146 182.219 93.7767 179.618C85.9335 168.167 73.3695 174.984 81.8213 154.982H94.4836Z" fill="#4CAF4F"/>
<path opacity="0.6" d="M94.4836 154.982C94.4836 154.982 109.961 174.486 107.054 193.141C104.712 208.207 91.1275 228.608 91.1275 228.608L84.741 225.436C89.2426 216.416 93.0841 207.081 96.2354 197.505C97.2072 194.532 97.4908 191.377 97.0649 188.279C96.639 185.18 95.5146 182.219 93.7767 179.618C85.9335 168.167 73.3695 174.984 81.8213 154.982H94.4836Z" fill="black"/>
<path opacity="0.4" d="M102.075 167.509L99.8251 165.272C99.8251 165.45 104.183 192.354 105.406 199.915C106.128 197.706 106.681 195.446 107.06 193.153C108.498 184.001 105.492 174.652 102.075 167.509Z" fill="black"/>
<path d="M101.393 154.982C101.393 154.982 120.029 179.495 120.558 194.192C120.995 206.486 100.274 230.304 100.274 230.304L94.25 226.407C94.25 226.407 106.378 209.491 109.432 195.673C108.252 181.979 83.2965 154.982 83.2965 154.982H101.393Z" fill="#4CAF4F"/>
<path opacity="0.6" d="M101.393 154.982C101.393 154.982 120.029 179.495 120.558 194.192C120.995 206.486 100.274 230.304 100.274 230.304L94.25 226.407C94.25 226.407 106.378 209.491 109.432 195.673C108.252 181.979 83.2965 154.982 83.2965 154.982H101.393Z" fill="black"/>
<path d="M78.3361 125.73C76.3446 126.203 74.4329 133.444 74.4329 133.444L82.2209 138.644C82.2209 138.644 84.8148 132.915 83.9051 130.407C82.9646 127.795 80.8378 125.133 78.3361 125.73Z" fill="#4CAF4F"/>
<path opacity="0.2" d="M79.8605 130.395L79.3196 136.708L82.2147 138.65C83.0141 136.85 83.6059 134.966 83.9788 133.032L79.8605 130.395Z" fill="black"/>
<path d="M103.698 125.871C103.698 125.871 105.996 126.676 101.393 154.976H81.809C82.1409 146.985 82.147 142.068 78.3361 125.73C81.0782 125.165 83.8576 124.799 86.6526 124.635C89.6136 124.423 92.586 124.423 95.547 124.635C99.3702 124.986 103.698 125.871 103.698 125.871Z" fill="#4CAF4F"/>
<path d="M105.689 130.395C106.132 131.624 106.599 132.946 107.091 134.218C107.582 135.491 108.049 136.8 108.547 138.091L110.053 141.951L110.434 142.916L110.631 143.395L110.723 143.635C110.723 143.678 110.723 143.678 110.723 143.672C110.611 143.514 110.464 143.383 110.293 143.291C110.05 143.148 109.776 143.066 109.494 143.051C109.26 143.044 109.027 143.088 108.812 143.18C108.529 143.309 108.529 143.365 108.535 143.359C108.586 143.318 108.632 143.27 108.67 143.217C109.011 142.77 109.305 142.291 109.549 141.785C109.838 141.219 110.115 140.617 110.391 140.009C110.932 138.779 111.43 137.507 111.928 136.222C112.426 134.937 112.899 133.64 113.36 132.331L114.762 128.41L117.128 129.024C116.661 131.827 116.059 134.556 115.333 137.335C114.983 138.718 114.571 140.088 114.104 141.471C113.87 142.166 113.612 142.854 113.317 143.561C113.01 144.329 112.631 145.065 112.186 145.762C112.023 145.996 111.842 146.218 111.645 146.426C111.331 146.765 110.95 147.035 110.527 147.219C110.15 147.38 109.743 147.456 109.334 147.44C108.876 147.423 108.43 147.29 108.037 147.053C107.574 146.764 107.19 146.365 106.918 145.891C106.826 145.731 106.746 145.571 106.691 145.455L106.574 145.221L106.341 144.742L105.873 143.789C105.259 142.51 104.644 141.219 104.109 139.922C103.575 138.626 103.009 137.31 102.48 135.989C101.952 134.667 101.479 133.345 101.03 131.919L105.689 130.395Z" fill="#E58A7B"/>
<path d="M103.698 125.871C106.052 126.43 108.701 133.388 108.701 133.388L101.7 139.345C101.7 139.345 97.1697 131.76 98.0856 129.258C99.0383 126.652 100.624 125.139 103.698 125.871Z" fill="#4CAF4F"/>
<path d="M115.874 126.209L118.333 124.156L120.042 126.818L118.782 129.037C118.782 129.037 116.778 130.881 115.008 129.94C114.727 129.309 114.659 128.603 114.816 127.929C114.972 127.256 115.344 126.652 115.874 126.209Z" fill="#E58A7B"/>
<path d="M122.771 124.162L122.587 124.832L118.696 125.484L118.315 124.156L122.771 124.162Z" fill="#E58A7B"/>
<path d="M100.753 230.618L93.7337 226.081L94.9938 223.893L102.88 228.743L100.753 230.618Z" fill="#4CAF4F"/>
<path d="M88.8286 234.232C88.2127 234.157 87.6209 233.947 87.0952 233.617C87.0735 233.61 87.0547 233.596 87.0414 233.577C87.0281 233.558 87.0209 233.536 87.0209 233.513C87.0209 233.49 87.0281 233.468 87.0414 233.449C87.0547 233.43 87.0735 233.416 87.0952 233.408C87.2858 233.347 88.9392 232.837 89.4187 233.23C89.4726 233.275 89.5135 233.333 89.5373 233.399C89.5611 233.465 89.5668 233.536 89.5539 233.605C89.5454 233.716 89.5087 233.822 89.4474 233.915C89.3861 234.007 89.3021 234.083 89.2035 234.134C89.0884 234.197 88.9597 234.23 88.8286 234.232ZM87.4456 233.556C88.2139 233.949 88.8286 234.091 89.1236 233.943C89.1879 233.908 89.2419 233.856 89.2807 233.794C89.3194 233.731 89.3415 233.66 89.3449 233.587C89.3449 233.488 89.3449 233.445 89.2896 233.421C89.0314 233.212 88.1094 233.372 87.4333 233.556H87.4456Z" fill="#263238"/>
<path d="M87.1382 233.66C87.1058 233.66 87.0748 233.647 87.0521 233.624C87.043 233.607 87.0382 233.588 87.0382 233.568C87.0382 233.549 87.043 233.53 87.0521 233.513C87.0521 233.458 87.4517 232.124 88.0787 231.823C88.1587 231.786 88.2457 231.767 88.3337 231.767C88.4218 231.767 88.5088 231.786 88.5888 231.823C88.6752 231.85 88.7499 231.905 88.8011 231.98C88.8523 232.054 88.8772 232.144 88.8716 232.234C88.8286 232.788 87.7037 233.55 87.1874 233.679L87.1382 233.66ZM88.3307 231.982C88.2709 231.984 88.2122 231.999 88.1586 232.025C87.7775 232.21 87.464 232.929 87.3103 233.365C87.8512 233.138 88.595 232.536 88.6196 232.197C88.6196 232.142 88.6196 232.075 88.4782 232.013C88.4322 231.988 88.3823 231.972 88.3307 231.964V231.982Z" fill="#263238"/>
<path d="M97.6 236.887C96.9054 236.887 95.9404 235.996 95.4118 235.449C95.3983 235.43 95.391 235.408 95.391 235.385C95.391 235.361 95.3983 235.339 95.4118 235.32C95.4239 235.3 95.4412 235.284 95.4617 235.273C95.4823 235.262 95.5054 235.257 95.5285 235.259C95.7744 235.259 97.9073 235.578 98.2085 236.181C98.2404 236.235 98.2573 236.296 98.2573 236.359C98.2573 236.422 98.2404 236.483 98.2085 236.537C98.1634 236.631 98.0951 236.712 98.0102 236.772C97.9252 236.832 97.8264 236.87 97.7229 236.881L97.6 236.887ZM95.8174 235.535C96.5919 236.285 97.2742 236.703 97.6615 236.654C97.7293 236.645 97.7939 236.62 97.8496 236.58C97.9054 236.54 97.9505 236.488 97.9811 236.426C97.9949 236.405 98.0022 236.381 98.0022 236.356C98.0022 236.331 97.9949 236.306 97.9811 236.285C97.8213 235.953 96.6841 235.67 95.8174 235.535Z" fill="#263238"/>
<path d="M95.8851 235.504C95.7471 235.508 95.6091 235.498 95.4732 235.474C95.4543 235.471 95.4364 235.463 95.4213 235.451C95.4062 235.439 95.3944 235.424 95.3872 235.406C95.378 235.388 95.3732 235.368 95.3732 235.348C95.3732 235.327 95.378 235.307 95.3872 235.289C95.4241 235.246 96.2539 234.244 97.0407 234.177C97.2634 234.159 97.4841 234.23 97.6553 234.373C97.8951 234.582 97.8828 234.767 97.8213 234.884C97.6676 235.302 96.6043 235.504 95.8851 235.504ZM95.7253 235.277C96.4137 235.314 97.514 235.086 97.6553 234.785C97.6553 234.785 97.7045 234.687 97.5447 234.552C97.4811 234.496 97.4068 234.455 97.3265 234.429C97.2461 234.404 97.1614 234.395 97.0776 234.404C96.5476 234.552 96.0756 234.859 95.7253 235.283V235.277Z" fill="#263238"/>
<path d="M87.3042 232.997L82.0917 231.521C82.0019 231.494 81.9052 231.501 81.8201 231.541C81.735 231.58 81.6676 231.65 81.6307 231.737L79.8728 235.689C79.8315 235.79 79.8121 235.899 79.8159 236.008C79.8197 236.117 79.8466 236.225 79.8947 236.323C79.9429 236.421 80.0114 236.508 80.0955 236.577C80.1796 236.647 80.2776 236.698 80.383 236.728C82.227 237.207 83.1121 237.342 85.4048 238C86.8186 238.393 88.8347 239.125 90.7833 239.678C92.7318 240.231 93.3833 238.332 92.6273 237.926C89.2097 236.119 88.9392 234.853 88.0049 233.501C87.8376 233.256 87.5896 233.077 87.3042 232.997Z" fill="#4CAF4F"/>
<path d="M95.5531 234.73L91.1029 231.657C91.0274 231.602 90.9344 231.576 90.8415 231.585C90.7486 231.594 90.6623 231.637 90.5988 231.706L87.6484 234.877C87.5765 234.959 87.5229 235.056 87.4911 235.16C87.4593 235.264 87.4501 235.374 87.464 235.482C87.478 235.591 87.5148 235.694 87.572 235.787C87.6292 235.88 87.7056 235.96 87.7959 236.021C89.3633 237.072 90.1747 237.496 92.1355 238.854C93.3649 239.69 95.7437 241.547 97.4033 242.702C99.0629 243.858 100.298 242.272 99.7083 241.645C97.0652 238.824 96.4874 237.053 96.051 235.449C95.9752 235.158 95.7989 234.903 95.5531 234.73Z" fill="#4CAF4F"/>
<path d="M91.945 229.013L83.9235 225.024L84.7533 222.848L93.3218 227.053L91.945 229.013Z" fill="#4CAF4F"/>
<path d="M81.5139 153.826L80.8378 155.597C80.7702 155.732 80.93 155.873 81.1574 155.873H101.491C101.669 155.873 101.817 155.787 101.829 155.677L102.001 153.919C102.001 153.802 101.86 153.697 101.669 153.697H81.8336C81.7738 153.692 81.7137 153.7 81.658 153.723C81.6024 153.745 81.553 153.781 81.5139 153.826Z" fill="#4CAF4F"/>
<path opacity="0.4" d="M81.5139 153.826L80.8378 155.597C80.7702 155.732 80.93 155.873 81.1574 155.873H101.491C101.669 155.873 101.817 155.787 101.829 155.677L102.001 153.919C102.001 153.802 101.86 153.697 101.669 153.697H81.8336C81.7738 153.692 81.7137 153.7 81.658 153.723C81.6024 153.745 81.553 153.781 81.5139 153.826Z" fill="white"/>
<path d="M84.7164 156.045H84.1816C84.0772 156.045 83.9972 155.99 84.0034 155.922L84.2554 153.642C84.2554 153.581 84.3538 153.525 84.4582 153.525H84.993C85.0975 153.525 85.1774 153.581 85.1713 153.642L84.9193 155.922C84.9131 155.99 84.8209 156.045 84.7164 156.045Z" fill="#4CAF4F"/>
<path d="M97.2558 156.045H96.7272C96.6227 156.045 96.5428 155.99 96.5489 155.922L96.7948 153.642C96.7948 153.581 96.8993 153.525 97.0038 153.525H97.5324C97.6369 153.525 97.7229 153.581 97.7107 153.642L97.4648 155.922C97.4341 155.99 97.3664 156.045 97.2558 156.045Z" fill="#4CAF4F"/>
<g style="mix-blend-mode:multiply">
<path d="M84.2493 260.141C93.3438 260.141 100.716 259.607 100.716 258.948C100.716 258.29 93.3438 257.756 84.2493 257.756C75.1547 257.756 67.7821 258.29 67.7821 258.948C67.7821 259.607 75.1547 260.141 84.2493 260.141Z" fill="#F5F5F5"/>
</g>
<path d="M94.2808 257.264C91.3672 256.416 88.134 255.328 86.1793 254.191C86.124 254.154 86.0626 254.135 86.0072 254.104V240.914H91.902C92.3494 240.887 92.7699 240.691 93.0773 240.364C93.3848 240.038 93.556 239.607 93.556 239.159C93.556 238.71 93.3848 238.279 93.0773 237.953C92.7699 237.627 92.3494 237.43 91.902 237.404H86.038V177.276H82.4974V237.404H76.6396C76.4004 237.39 76.1608 237.424 75.9356 237.506C75.7104 237.588 75.5043 237.715 75.3299 237.879C75.1555 238.044 75.0166 238.242 74.9216 238.462C74.8267 238.682 74.7777 238.919 74.7777 239.159C74.7777 239.398 74.8267 239.635 74.9216 239.855C75.0166 240.075 75.1555 240.274 75.3299 240.438C75.5043 240.602 75.7104 240.729 75.9356 240.811C76.1608 240.893 76.4004 240.928 76.6396 240.914H82.4974V254.086C82.4421 254.086 82.3868 254.135 82.3315 254.172C80.3461 255.328 77.1375 256.416 74.2239 257.245C74.0271 257.305 73.8581 257.433 73.7475 257.606C73.6369 257.78 73.592 257.987 73.621 258.19C73.65 258.394 73.7509 258.58 73.9055 258.716C74.06 258.852 74.258 258.927 74.4636 258.93H94.041C94.2375 258.916 94.4235 258.836 94.5678 258.702C94.7122 258.568 94.8062 258.389 94.8343 258.194C94.8624 257.999 94.8227 257.8 94.722 257.631C94.6212 257.462 94.4655 257.332 94.2808 257.264Z" fill="#E0E0E0"/>
<path d="M95.1843 171.154H73.3265C71.568 171.154 70.1425 172.58 70.1425 174.338V180.835C70.1425 182.594 71.568 184.019 73.3265 184.019H95.1843C96.9428 184.019 98.3683 182.594 98.3683 180.835V174.338C98.3683 172.58 96.9428 171.154 95.1843 171.154Z" fill="#4CAF4F"/>
<path d="M73.1236 184.025V185.144C73.1236 186.066 74.1255 186.816 75.3549 186.816H93.1804C94.4098 186.816 95.4117 186.066 95.4117 185.144V184.025H73.1236Z" fill="#4CAF4F"/>
<path opacity="0.3" d="M73.1236 184.025V185.144C73.1236 186.066 74.1255 186.816 75.3549 186.816H93.1804C94.4098 186.816 95.4117 186.066 95.4117 185.144V184.025H73.1236Z" fill="white"/>
</svg>
