<svg width="46" height="40" viewBox="0 0 46 40" fill="none" xmlns="http://www.w3.org/2000/svg">
<path d="M45.6658 26.8835C45.6658 33.8032 40.0562 39.4127 33.1365 39.4127L14.3426 39.4127C12.4205 39.4127 10.8623 37.8545 10.8623 35.9324L10.8623 12.266C10.8623 8.42172 13.9787 5.30531 17.823 5.30531L42.1854 5.30532C44.1076 5.30532 45.6658 6.86352 45.6658 8.78566L45.6658 26.8835Z" fill="#E8F5E9"/>
<path d="M20.1282 16.8911C19.9605 16.8911 19.8049 16.8451 19.6667 16.7709V16.7729C19.6667 17.0366 19.5642 17.2843 19.3782 17.4697C19.1923 17.6557 18.9448 17.7582 18.6814 17.7582C18.5113 17.7582 18.3537 17.711 18.214 17.6349C18.1999 17.8761 18.1035 18.1016 17.9315 18.2738C17.7455 18.4598 17.498 18.5623 17.2345 18.5623C16.7108 18.5623 16.2856 18.1506 16.2549 17.6347C16.0929 17.7223 15.9097 17.7682 15.7208 17.7561C15.2057 17.7223 14.8023 17.2772 14.8023 16.7426V12.3109L14.2977 13.1852C14.1055 13.5196 13.7457 13.7272 13.3583 13.7272C13.1696 13.7272 12.9831 13.6776 12.818 13.583C12.6123 13.4638 12.4652 13.2724 12.404 13.0435C12.3425 12.8144 12.3744 12.5748 12.4932 12.3694C12.4934 12.3694 14.1443 9.51054 14.245 9.33493C14.257 9.30853 14.2911 9.23195 14.3201 9.16667C14.3479 9.10436 14.3716 9.0404 14.3944 8.97611C14.8923 7.57055 16.1251 6.69745 17.6118 6.69745C19.5425 6.69745 21.1132 8.40067 21.1132 10.4942L21.1134 15.9057C21.1134 16.1691 21.011 16.4166 20.8252 16.6027C20.6393 16.7887 20.3918 16.8912 20.1281 16.8912L20.1282 16.8911ZM17.6118 7.221C16.3343 7.221 15.3161 7.94258 14.8879 9.15121C14.8605 9.22795 14.832 9.3047 14.7987 9.37948C14.7021 9.59612 14.7021 9.59612 14.6749 9.62727L14.6713 9.62416C14.5365 9.87851 14.136 10.572 12.9466 12.6315C12.8977 12.7159 12.8847 12.814 12.9097 12.9078C12.9349 13.0016 12.9954 13.0806 13.0792 13.129C13.3393 13.2784 13.6955 13.182 13.8438 12.9237L14.8374 11.2034C14.8968 11.1009 15.0168 11.0506 15.1319 11.0817C15.2464 11.1124 15.3259 11.2162 15.3259 11.3346V16.7427C15.3259 16.9979 15.5185 17.2181 15.7551 17.2337C15.8916 17.2409 16.0188 17.1952 16.1144 17.0997C16.2013 17.0128 16.2492 16.897 16.2492 16.7732V13.2362C16.2492 13.0916 16.3665 12.9743 16.5111 12.9743C16.6558 12.9743 16.773 13.0914 16.773 13.2362L16.7729 17.5772C16.7729 17.8317 16.98 18.0388 17.2345 18.0388C17.3581 18.0388 17.4742 17.9909 17.5613 17.904C17.6482 17.8169 17.6961 17.7008 17.6961 17.5772V13.2362C17.6961 13.0916 17.8132 12.9743 17.958 12.9743C18.1027 12.9743 18.2199 13.0914 18.2199 13.2362L18.2198 16.7325V16.7732C18.2198 17.0275 18.4269 17.2347 18.6816 17.2347C18.8051 17.2347 18.9208 17.1866 19.0084 17.0994C19.0953 17.0126 19.1432 16.8968 19.1432 16.773V13.236C19.1432 13.0914 19.2603 12.9741 19.4051 12.9741C19.5497 12.9741 19.667 13.0912 19.667 13.236L19.6667 15.9058C19.6667 16.1605 19.8738 16.3676 20.1281 16.3676C20.2519 16.3676 20.3677 16.3196 20.4546 16.2328C20.5419 16.1456 20.5896 16.0295 20.5896 15.9058L20.5898 10.4944C20.5898 8.68963 19.2539 7.22105 17.6118 7.22105L17.6118 7.221Z" fill="#103E13"/>
<path d="M9.83847 20.6523L13.6388 18.3725C14.097 18.0973 14.6866 18.2142 14.9804 18.6388C15.0877 18.7934 15.1425 18.9737 15.151 19.1572C15.2927 19.0832 15.4468 19.0431 15.6038 19.0431C15.6841 19.0431 15.7648 19.0531 15.8445 19.0729C16.0998 19.1367 16.315 19.2963 16.4503 19.5219C16.5858 19.7479 16.6253 20.0127 16.5615 20.2678C16.5026 20.5037 16.3591 20.7024 16.1595 20.8386C16.2991 20.921 16.4195 21.0333 16.5051 21.1763C16.6405 21.4023 16.6801 21.667 16.6164 21.9223C16.5526 22.1773 16.3931 22.3925 16.1671 22.5281L16.1658 22.5289C16.3029 22.6111 16.4211 22.7223 16.5057 22.8631C16.6414 23.0891 16.6809 23.354 16.6171 23.6093C16.5531 23.8645 16.3936 24.0796 16.1679 24.2151L11.5276 26.9989C10.6616 27.5182 9.66041 27.6975 8.70892 27.5032C7.74892 27.307 6.95386 26.7552 6.47044 25.9493C5.7054 24.6743 5.82005 23.1679 6.76907 22.0181C6.81253 21.9656 6.85533 21.9122 6.8942 21.8567C6.93536 21.7982 6.98341 21.7293 6.99981 21.7057C7.09804 21.5302 8.70092 18.6423 8.70075 18.6426C8.86262 18.3506 9.166 18.1852 9.47889 18.1854C9.62485 18.1854 9.77293 18.2213 9.90954 18.2971C10.0745 18.3892 10.2131 18.5236 10.31 18.6854C10.5093 19.0175 10.5163 19.4331 10.3287 19.7694L9.83847 20.6523ZM9.86126 18.9546C9.81042 18.8699 9.74056 18.8023 9.65512 18.7544C9.4785 18.6567 9.25613 18.7203 9.15889 18.8963C8.01194 20.9626 7.62096 21.6667 7.47008 21.9173L7.47352 21.9182C7.4609 21.9601 7.4609 21.9601 7.32282 22.1574C7.27591 22.2242 7.22491 22.2883 7.17293 22.3514C6.35688 23.3401 6.26213 24.5844 6.91923 25.68C7.32626 26.3586 7.99897 26.8238 8.8135 26.9901C9.6369 27.1575 10.5048 27.0017 11.258 26.5498L15.8987 23.7659C16.0046 23.7024 16.0794 23.6016 16.1093 23.482C16.1391 23.3626 16.1206 23.2385 16.0569 23.1325C15.9261 22.9144 15.6419 22.8428 15.4238 22.9741L13.1344 24.3476C13.0105 24.422 12.8494 24.382 12.7751 24.2579C12.7007 24.1339 12.7409 23.973 12.8648 23.8986L15.1543 22.5251L15.8979 22.0791C16.0038 22.0154 16.0788 21.9146 16.1086 21.7954C16.1385 21.6758 16.1199 21.5515 16.0563 21.4457C15.9253 21.2274 15.6411 21.1564 15.4231 21.2873L12.3901 23.1068C12.2658 23.1814 12.1052 23.1411 12.0308 23.0171C11.9563 22.8931 11.9967 22.7323 12.1205 22.6578L15.8429 20.4247C15.9489 20.3611 16.0237 20.2604 16.0535 20.1409C16.0834 20.0215 16.0648 19.8973 16.0014 19.7914C15.9379 19.6856 15.837 19.6108 15.7175 19.581C15.5973 19.5511 15.4736 19.5697 15.368 19.633L14.6789 20.0464C14.6788 20.0464 14.6788 20.0466 14.6786 20.0466H14.6784L11.6456 21.8661C11.5213 21.9409 11.3605 21.9005 11.2863 21.7764C11.2118 21.6524 11.2521 21.4915 11.376 21.4171L14.409 19.5976C14.5149 19.5339 14.5899 19.4331 14.6197 19.3139C14.6525 19.183 14.6276 19.0492 14.5499 18.937C14.4151 18.742 14.1268 18.6902 13.9082 18.8215L9.27083 21.6035C9.16932 21.6642 9.03927 21.6494 8.95416 21.5673C8.86889 21.485 8.8497 21.3556 8.90709 21.2521L9.87138 19.5147C9.96814 19.3411 9.96436 19.1266 9.86121 18.9547L9.86126 18.9546Z" fill="#103E13"/>
<path d="M27.9983 25.9492C27.515 26.7552 26.7201 27.3069 25.76 27.5031C24.8083 27.6971 23.8075 27.5182 22.9412 26.9988L18.3005 24.2149C18.0747 24.0794 17.915 23.8642 17.851 23.6087C17.7876 23.3537 17.8273 23.0889 17.9626 22.8632C18.047 22.7222 18.1654 22.611 18.3027 22.5288L18.3014 22.528C18.0755 22.3926 17.9158 22.1774 17.8522 21.9222C17.7882 21.667 17.8279 21.402 17.9634 21.1761C18.0506 21.0309 18.1702 20.9174 18.3066 20.8369C18.1085 20.7006 17.9658 20.5027 17.9071 20.2679C17.8432 20.0125 17.8829 19.7477 18.0183 19.522C18.1536 19.2962 18.3689 19.1366 18.6241 19.0728C18.7038 19.0528 18.7847 19.043 18.8647 19.043C19.0218 19.0432 19.176 19.083 19.3176 19.1571C19.3263 18.9736 19.3809 18.7934 19.4882 18.6387C19.7822 18.2145 20.3713 18.0971 20.8302 18.3724L24.6304 20.6519L24.1405 19.7696C23.9526 19.4328 23.9595 19.0172 24.1587 18.685C24.2558 18.5233 24.3945 18.389 24.5603 18.296C24.6966 18.2205 24.8442 18.1848 24.9898 18.1848C25.3026 18.185 25.6063 18.3499 25.768 18.642C26.3314 19.6573 27.3948 21.5721 27.4695 21.7057C27.4854 21.7289 27.5335 21.7977 27.5747 21.8563C27.6138 21.9119 27.6562 21.965 27.6999 22.0178C28.6488 23.1681 28.7633 24.6743 27.9983 25.9492L27.9983 25.9492ZM27.2959 22.3516C27.2438 22.2884 27.1926 22.224 27.146 22.1576C27.0043 21.9565 27.0007 21.9513 26.9901 21.8986C26.8244 21.6246 26.4204 20.8971 25.3097 18.8961C25.2122 18.7204 24.9909 18.6563 24.8146 18.7537C24.7278 18.8023 24.6581 18.87 24.6073 18.9548C24.5043 19.1265 24.5004 19.341 24.5976 19.5152L25.5616 21.252C25.6191 21.3556 25.5999 21.4849 25.5148 21.5672C25.4299 21.6497 25.3 21.6641 25.198 21.6034L20.5606 18.8214C20.342 18.6904 20.0539 18.7417 19.9188 18.9369C19.841 19.0491 19.8163 19.1829 19.8487 19.3136C19.8786 19.433 19.9535 19.5337 20.0596 19.5973C20.06 19.5975 20.0601 19.5978 20.0605 19.598L23.0925 21.417C23.2165 21.4914 23.2567 21.6521 23.1822 21.7763C23.1078 21.9001 22.9472 21.9406 22.8229 21.866L19.1005 19.6329C18.9948 19.5696 18.8705 19.5509 18.7512 19.5809C18.6314 19.6108 18.5308 19.6855 18.4673 19.7916C18.4037 19.8974 18.3853 20.0216 18.4148 20.1409C18.4447 20.2603 18.5196 20.3612 18.6255 20.4248L19.3499 20.8592L22.3478 22.6579C22.4718 22.7324 22.512 22.8931 22.4375 23.0172C22.3631 23.141 22.2025 23.1814 22.0782 23.1069L19.0455 21.2874C18.8274 21.1562 18.5434 21.2274 18.4122 21.4458C18.3486 21.5518 18.3302 21.6759 18.3597 21.7953C18.3896 21.9147 18.4645 22.0154 18.5706 22.0792L19.3141 22.5252L21.6033 23.8987C21.7273 23.9731 21.7675 24.1339 21.693 24.258C21.6186 24.3818 21.458 24.4225 21.3337 24.3477L19.0445 22.9743C18.9389 22.911 18.8151 22.8923 18.6951 22.9223C18.5757 22.9521 18.4747 23.0269 18.4112 23.1327C18.3477 23.2386 18.3292 23.3629 18.3587 23.4821C18.3886 23.6015 18.4635 23.7022 18.5696 23.766L23.2103 26.5499C23.9634 27.0017 24.8319 27.1582 25.6548 26.9902C26.4692 26.8239 27.1419 26.3587 27.5489 25.6801C28.2067 24.5843 28.1121 23.3399 27.2962 22.3515L27.2959 22.3516Z" fill="#103E13"/>
</svg>
