<svg width="13" height="13" viewBox="0 0 13 13" fill="none" xmlns="http://www.w3.org/2000/svg">
<path fill-rule="evenodd" clip-rule="evenodd" d="M12.3397 6.26969C12.3397 6.67139 12.2988 7.07253 12.2185 7.46354C12.1402 7.84528 12.0242 8.22004 11.8722 8.5783C11.7237 8.93022 11.5395 9.26935 11.3243 9.58562C11.1123 9.89988 10.8681 10.1947 10.5998 10.4635C10.3309 10.7311 10.0351 10.9746 9.72095 11.1876C9.40364 11.4013 9.06402 11.5852 8.71189 11.7344C8.35312 11.8855 7.97748 12.0014 7.59608 12.0796C7.20455 12.1601 6.80195 12.2012 6.39967 12.2012C5.99709 12.2012 5.59451 12.1601 5.20353 12.0796C4.82155 12.0014 4.44594 11.8855 4.08745 11.7344C3.73534 11.5852 3.39539 11.4013 3.07809 11.1876C2.76398 10.9747 2.46813 10.7311 2.19984 10.4635C1.93127 10.1947 1.68704 9.89988 1.47473 9.58562C1.26068 9.26935 1.07619 8.9302 0.927122 8.5783C0.775121 8.22004 0.65883 7.84525 0.580225 7.46354C0.50076 7.07253 0.460144 6.67139 0.460144 6.26969C0.460144 5.86769 0.500737 5.4657 0.580248 5.07554C0.658853 4.69381 0.775144 4.31846 0.927146 3.96078C1.07622 3.6086 1.2607 3.26917 1.47475 2.95289C1.68706 2.63836 1.93129 2.34408 2.19986 2.07502C2.46816 1.80739 2.764 1.56442 3.07812 1.35184C3.39542 1.13721 3.73536 0.95332 4.08747 0.803859C4.44597 0.652355 4.82155 0.536232 5.20356 0.458623C5.59454 0.378692 5.99711 0.338135 6.39969 0.338135C6.80197 0.338135 7.20455 0.378692 7.59611 0.458623C7.97751 0.536255 8.35312 0.652378 8.71192 0.803859C9.06402 0.953296 9.40367 1.13721 9.72097 1.35184C10.0351 1.56442 10.331 1.80739 10.5998 2.07502C10.8681 2.34408 11.1123 2.63836 11.3243 2.95289C11.5395 3.26917 11.7237 3.60863 11.8722 3.96078C12.0242 4.31846 12.1402 4.69381 12.2185 5.07554C12.2988 5.4657 12.3397 5.86769 12.3397 6.26969ZM4.23534 1.68808C2.82078 2.3551 1.76502 3.65667 1.43581 5.22529C1.56954 5.22645 3.68338 5.2531 6.11887 4.60693C5.24092 3.04931 4.30292 1.77818 4.23534 1.68808ZM6.53914 5.38692C3.92731 6.16773 1.42103 6.11154 1.33112 6.10808C1.32966 6.16252 1.32705 6.21522 1.32705 6.26969C1.32705 7.57096 1.81868 8.75726 2.62674 9.65426C2.625 9.65164 4.01317 7.19243 6.75059 6.3085C6.81671 6.2865 6.88402 6.26679 6.95072 6.24768C6.82341 5.95981 6.68445 5.67133 6.53914 5.38692ZM9.74966 2.46805C8.8566 1.6817 7.68397 1.20472 6.39965 1.20472C5.9875 1.20472 5.58752 1.25454 5.20438 1.34663C5.28036 1.44859 6.23317 2.71077 7.10068 4.30137C9.01469 3.58485 9.73718 2.48658 9.74966 2.46805ZM7.29649 7.08701C7.28519 7.09075 7.27389 7.09398 7.26285 7.09802C4.26994 8.13989 3.29256 10.2396 3.28198 10.2625C4.14314 10.9312 5.22327 11.3347 6.39969 11.3347C7.10215 11.3347 7.77128 11.1918 8.38008 10.9332C8.30496 10.4907 8.01028 8.93946 7.29649 7.08701ZM9.23425 10.4704C10.3732 9.70292 11.1822 8.48419 11.4078 7.0725C11.3034 7.03891 9.88423 6.59027 8.24692 6.8524C8.91228 8.67822 9.18262 10.1652 9.23425 10.4704ZM7.49112 5.05615C7.60885 5.2977 7.72287 5.54356 7.82814 5.79064C7.86557 5.87927 7.90211 5.96617 7.93778 6.05304C9.68036 5.83407 11.3971 6.20248 11.4705 6.21752C11.4589 5.01675 11.0288 3.91472 10.317 3.05194C10.3075 3.06552 9.49388 4.23938 7.49112 5.05615Z" fill="white"/>
</svg>
