<svg width="12" height="13" viewBox="0 0 12 13" fill="none" xmlns="http://www.w3.org/2000/svg">
<path fill-rule="evenodd" clip-rule="evenodd" d="M5.98912 0.338135C4.37595 0.338135 4.1735 0.345188 3.53992 0.374021C2.90757 0.402978 2.47594 0.503089 2.09826 0.649977C1.7076 0.801691 1.3762 1.00464 1.04604 1.33492C0.71564 1.66507 0.512695 1.99647 0.360486 2.38701C0.213227 2.76481 0.112992 3.19657 0.08453 3.82867C0.0561919 4.46225 0.0487671 4.66482 0.0487671 6.27799C0.0487671 7.89115 0.0559444 8.09299 0.0846537 8.72657C0.113734 9.35892 0.213846 9.79055 0.360609 10.1682C0.512447 10.5589 0.715392 10.8903 1.04567 11.2204C1.37571 11.5508 1.7071 11.7543 2.09752 11.906C2.47545 12.0529 2.9072 12.153 3.53942 12.182C4.17301 12.2108 4.37533 12.2178 5.98838 12.2178C7.60166 12.2178 7.8035 12.2108 8.43708 12.182C9.06943 12.153 9.50155 12.0529 9.87947 11.906C10.27 11.7543 10.6009 11.5508 10.931 11.2204C11.2614 10.8903 11.4643 10.5589 11.6165 10.1683C11.7625 9.79055 11.8628 9.35879 11.8925 8.72669C11.9209 8.09311 11.9284 7.89115 11.9284 6.27799C11.9284 4.66482 11.9209 4.46237 11.8925 3.82879C11.8628 3.19644 11.7625 2.76481 11.6165 2.38714C11.4643 1.99647 11.2614 1.66507 10.931 1.33492C10.6005 1.00451 10.2701 0.801567 9.8791 0.649977C9.50044 0.503089 9.06856 0.402978 8.43621 0.374021C7.80263 0.345188 7.60092 0.338135 5.98726 0.338135H5.98912ZM5.45624 1.40853C5.61439 1.40828 5.79085 1.40853 5.98909 1.40853C7.57503 1.40853 7.763 1.41422 8.38929 1.44268C8.96842 1.46917 9.28274 1.56594 9.49212 1.64724C9.76931 1.7549 9.96694 1.88359 10.1747 2.09149C10.3826 2.29938 10.5113 2.49738 10.6192 2.77457C10.7005 2.9837 10.7974 3.29802 10.8238 3.87716C10.8522 4.50332 10.8584 4.69141 10.8584 6.27661C10.8584 7.86181 10.8522 8.04991 10.8238 8.67607C10.7973 9.2552 10.7005 9.56952 10.6192 9.77865C10.5115 10.0558 10.3826 10.2532 10.1747 10.461C9.96681 10.6689 9.76944 10.7976 9.49212 10.9052C9.28299 10.9869 8.96842 11.0834 8.38929 11.1099C7.76313 11.1384 7.57503 11.1446 5.98909 11.1446C4.40303 11.1446 4.21505 11.1384 3.5889 11.1099C3.00976 11.0832 2.69544 10.9864 2.48594 10.9051C2.20875 10.7975 2.01075 10.6688 1.80286 10.4609C1.59496 10.253 1.46626 10.0555 1.35836 9.77816C1.27705 9.56902 1.18016 9.25471 1.1538 8.67557C1.12534 8.04941 1.11965 7.86132 1.11965 6.27513C1.11965 4.68894 1.12534 4.50183 1.1538 3.87567C1.18028 3.29654 1.27705 2.98222 1.35836 2.77284C1.46602 2.49565 1.59496 2.29765 1.80286 2.08976C2.01075 1.88186 2.20875 1.75316 2.48594 1.64526C2.69532 1.56358 3.00976 1.46706 3.5889 1.44046C4.13685 1.41571 4.3492 1.40828 5.45624 1.40704V1.40853ZM9.15974 2.3948C8.76622 2.3948 8.44696 2.71369 8.44696 3.10733C8.44696 3.50085 8.76622 3.82011 9.15974 3.82011C9.55326 3.82011 9.87252 3.50085 9.87252 3.10733C9.87252 2.71381 9.55326 2.3948 9.15974 2.3948ZM5.98913 3.22761C4.30456 3.22761 2.93876 4.59341 2.93876 6.27797C2.93876 7.96254 4.30456 9.32772 5.98913 9.32772C7.67369 9.32772 9.03899 7.96254 9.03899 6.27797C9.03899 4.59341 7.67369 3.22761 5.98913 3.22761ZM5.9891 4.29802C7.08253 4.29802 7.96906 5.18442 7.96906 6.27797C7.96906 7.3714 7.08253 8.25792 5.9891 8.25792C4.89555 8.25792 4.00915 7.3714 4.00915 6.27797C4.00915 5.18442 4.89555 4.29802 5.9891 4.29802Z" fill="white"/>
</svg>
