<svg width="28" height="20" viewBox="0 0 28 20" fill="none" xmlns="http://www.w3.org/2000/svg">
<g clip-path="url(#clip0_4_431)">
<path fill-rule="evenodd" clip-rule="evenodd" d="M7.04589 3.08379L0.0950928 9.9647C1.48538 11.341 3.07357 12.501 4.80514 13.4084C5.28376 14.6653 6.03398 15.8439 7.05579 16.8554C10.9001 20.6611 17.1329 20.6611 20.9772 16.8554C21.999 15.8439 22.7492 14.6653 23.2278 13.4084C24.9594 12.501 26.5476 11.341 27.9379 9.9647L20.9927 3.08938C20.9875 3.08424 20.9824 3.07909 20.9772 3.07396C17.1329 -0.731684 10.9001 -0.731684 7.05579 3.07396C7.0525 3.07724 7.04919 3.08051 7.04589 3.08379ZM20.3121 14.6499C18.2865 15.3266 16.1602 15.6732 14.0165 15.6732C11.8728 15.6732 9.74651 15.3266 7.72095 14.6499C7.94042 14.9381 8.18272 15.2147 8.44793 15.4773C11.5234 18.5218 16.5096 18.5218 19.585 15.4773C19.8502 15.2147 20.0926 14.9381 20.3121 14.6499ZM8.59069 4.31428C9.11295 4.65585 9.66828 4.94814 10.2494 5.18643C11.4437 5.67616 12.7237 5.92822 14.0165 5.92822C15.3092 5.92822 16.5893 5.67616 17.7836 5.18643C18.3647 4.94814 18.92 4.65585 19.4423 4.31427C16.4053 1.45353 11.6277 1.45354 8.59069 4.31428Z" fill="#3B4158"/>
</g>
<defs>
<clipPath id="clip0_4_431">
<rect width="27.8428" height="19.4899" fill="white" transform="translate(0.0950928 0.219727)"/>
</clipPath>
</defs>
</svg>
