<svg width="28" height="28" viewBox="0 0 28 28" fill="none" xmlns="http://www.w3.org/2000/svg">
<path fill-rule="evenodd" clip-rule="evenodd" d="M6.97907 0.150024C10.8233 0.150024 13.9398 3.26643 13.9398 7.11072V0.150024H20.9005C24.7447 0.150024 27.8612 3.26643 27.8612 7.11072C27.8612 10.955 24.7447 14.0714 20.9005 14.0714C24.7447 14.0714 27.8612 17.1879 27.8612 21.0321C27.8612 22.9409 27.0928 24.6703 25.8485 25.9278L25.8224 25.9541L25.7993 25.9771C24.5415 27.2232 22.8109 27.9928 20.9005 27.9928C19.003 27.9928 17.2829 27.2336 16.0273 26.0024C16.011 25.9864 15.9947 25.9702 15.9785 25.9541C15.9632 25.9388 15.9481 25.9235 15.933 25.9081C14.7001 24.6523 13.9398 22.931 13.9398 21.0321C13.9398 24.8764 10.8233 27.9928 6.97907 27.9928C3.13478 27.9928 0.0183716 24.8764 0.0183716 21.0321V14.0714H6.97907C3.13478 14.0714 0.0183716 10.955 0.0183716 7.11072C0.0183716 3.26643 3.13478 0.150024 6.97907 0.150024ZM12.5476 7.11072C12.5476 10.1862 10.0545 12.6793 6.97907 12.6793V1.54216C10.0545 1.54216 12.5476 4.03529 12.5476 7.11072ZM26.469 21.0321C26.469 17.9567 23.9759 15.4636 20.9005 15.4636C17.825 15.4636 15.3319 17.9567 15.3319 21.0321H26.469ZM1.41051 15.4636V21.0321C1.41051 24.1076 3.90364 26.6007 6.97907 26.6007C10.0545 26.6007 12.5476 24.1076 12.5476 21.0321V15.4636H1.41051ZM15.3319 12.6793V1.54216H20.9005C23.9759 1.54216 26.469 4.03529 26.469 7.11072C26.469 10.1862 23.9759 12.6793 20.9005 12.6793H15.3319Z" fill="#263238"/>
</svg>
