<svg width="33" height="21" viewBox="0 0 33 21" fill="none" xmlns="http://www.w3.org/2000/svg">
<g clip-path="url(#clip0_4_438)">
<path d="M30.785 2.70105C30.785 2.72458 30.785 2.754 30.7789 2.77166C30.7483 3.00114 30.7482 3.23062 30.7666 3.46599C30.7789 3.52483 30.7912 3.58368 30.8402 3.63075C30.9199 3.71901 31.0425 3.70136 31.0916 3.59544C31.1161 3.54249 31.1161 3.48953 31.1038 3.43657C31.0425 3.21297 31.0303 2.9776 31.0241 2.74812C31.0241 2.73635 31.0241 2.7187 31.0241 2.70105C31.0916 2.69516 31.1529 2.68928 31.208 2.68928C31.251 2.68339 31.2878 2.67751 31.3184 2.65985C31.4104 2.61278 31.4104 2.51275 31.3123 2.46568C31.2755 2.44802 31.2265 2.44214 31.1835 2.44214C31.0303 2.44802 30.877 2.44802 30.7237 2.44802C30.6686 2.44802 30.6134 2.45391 30.5582 2.45979C30.5275 2.46568 30.4907 2.46568 30.4662 2.48333C30.4233 2.50098 30.3988 2.5304 30.3988 2.57159C30.4049 2.61278 30.4233 2.63632 30.4662 2.65397C30.4907 2.67163 30.5214 2.67751 30.552 2.67751C30.6256 2.68339 30.7053 2.69516 30.785 2.70105ZM32.471 2.97172C32.471 2.9776 32.4771 2.98349 32.4771 2.98349C32.5016 3.14236 32.5262 3.29535 32.5446 3.44834C32.5507 3.50129 32.5568 3.54837 32.5936 3.58956C32.6733 3.68959 32.7959 3.67782 32.8511 3.57191C32.8756 3.51895 32.8818 3.46599 32.8695 3.40715C32.8327 3.23062 32.8143 3.0541 32.7775 2.88346C32.753 2.77754 32.7224 2.67751 32.6917 2.58336C32.6733 2.52452 32.6304 2.48333 32.5568 2.47745C32.4833 2.46568 32.4281 2.50098 32.3974 2.55394C32.3606 2.60101 32.33 2.64809 32.3054 2.70105C32.2625 2.79519 32.2258 2.88934 32.1767 2.9776C32.1706 3.00114 32.1644 3.01879 32.1522 3.03644C32.1461 3.02467 32.14 3.01879 32.14 3.01879C32.0602 2.87169 31.9867 2.72458 31.907 2.58336C31.8947 2.57159 31.8886 2.55982 31.8824 2.54806C31.8457 2.4951 31.8028 2.46568 31.7353 2.46568C31.674 2.47156 31.6249 2.50687 31.5943 2.55982C31.582 2.58336 31.582 2.60101 31.5759 2.62455C31.5514 2.81285 31.5207 3.00114 31.4962 3.18943C31.4839 3.29535 31.4778 3.40126 31.4778 3.50718C31.4717 3.53072 31.4778 3.56014 31.49 3.58368C31.5023 3.63075 31.5391 3.66017 31.5881 3.66605C31.6495 3.67194 31.6924 3.65429 31.7108 3.60721C31.7291 3.57191 31.7353 3.54249 31.7414 3.51307C31.766 3.40715 31.7843 3.30712 31.8028 3.20709C31.815 3.14825 31.8211 3.10117 31.8395 3.03644C31.8518 3.05998 31.864 3.07764 31.8763 3.09528C31.9315 3.1659 31.9867 3.23651 32.0541 3.29535C32.1215 3.34242 32.1767 3.33654 32.2319 3.28358C32.2442 3.27181 32.2503 3.26593 32.2625 3.25416C32.3177 3.17178 32.3852 3.0894 32.4403 3.00702C32.4526 2.99525 32.4587 2.98349 32.471 2.97172Z" fill="#3A3B7B"/>
<path d="M18.3448 2.81659C18.3022 2.92842 18.2941 3.00898 18.3138 3.07594C18.3355 3.167 18.3919 3.19681 18.4684 3.17365C19.1886 3.00275 20.7676 3.48785 21.3523 3.62306C21.4901 3.65145 21.6023 3.48062 21.5082 3.32747C21.3709 3.17914 19.7925 2.54412 19.1903 2.5095C18.9542 2.4967 18.5322 2.4386 18.3448 2.81659Z" fill="#3A3B7B"/>
<path d="M24.5161 0.760957C24.5929 0.803472 24.6358 0.844027 24.657 0.88934C24.6885 0.948779 24.6719 0.989903 24.6189 1.01089C24.1429 1.23386 23.5094 2.1938 23.2538 2.52488C23.1918 2.60104 23.0488 2.55678 23.0272 2.43153C23.0317 2.28992 23.5931 1.24817 23.9065 0.964432C24.0297 0.853653 24.2331 0.636289 24.5161 0.760957Z" fill="#3A3B7B"/>
<path d="M20.7253 0.288449C20.8175 0.221754 20.9134 0.198382 20.9623 0.241725C21.6805 0.831225 22.0613 1.76475 22.2972 2.61937C22.306 2.63928 22.3066 2.66785 22.2995 2.69766C22.2966 2.72314 22.2772 2.75005 22.2464 2.77087C22.2135 2.79386 22.1851 2.80086 22.1718 2.78105C21.8571 2.37014 20.0593 0.771364 20.7253 0.288449Z" fill="#3A3B7B"/>
<path d="M5.51682 10.5088C5.68895 10.3858 5.87608 10.2834 6.07411 10.204C6.28129 10.1471 6.50211 10.1565 6.70322 10.2309C6.90428 10.3052 7.07473 10.4403 7.18867 10.6158C7.2906 10.7909 7.33046 10.993 7.30233 11.1918C7.27419 11.3905 7.17955 11.575 7.03262 11.7176C6.91872 11.8333 6.7894 11.934 6.64812 12.0172C6.0184 12.4076 5.38307 12.7767 4.74777 13.1671C4.61777 13.2649 4.47987 13.3525 4.33537 13.4292C4.11559 13.5344 3.86441 13.5626 3.62526 13.5089C3.38613 13.4552 3.17407 13.3229 3.02575 13.1351C2.91488 13.002 2.82131 12.8566 2.74711 12.7018C2.14524 11.4877 1.52108 10.2788 0.941505 9.04328C0.674007 8.50844 0.456667 7.89331 0.244898 7.29962C0.153278 7.12712 0.135386 6.92714 0.195034 6.74216C0.254681 6.55718 0.387162 6.40184 0.564294 6.30917C0.741428 6.2165 0.949236 6.19384 1.14353 6.24595C1.33782 6.29807 1.50326 6.42088 1.60467 6.58824C1.91638 6.98582 2.1923 7.40812 2.42946 7.85056C3.03132 8.92028 3.60533 9.99 4.18491 11.0277C4.21865 11.085 4.25587 11.1403 4.29636 11.1935C4.73259 11.0174 5.14289 10.7873 5.51682 10.5088Z" fill="#3A3B7B"/>
<path d="M11.7397 10.1357C10.3632 11.6815 8.05607 11.291 6.89692 9.30133C6.07212 7.88927 5.92724 5.55724 7.72172 4.08635C8.10491 3.77841 8.56311 3.56864 9.0536 3.4766C9.655 3.39385 10.2683 3.49568 10.8057 3.76754C11.3432 4.0394 11.7774 4.46736 12.0463 4.99029C13.0271 6.70188 12.8877 8.88412 11.7397 10.1357ZM11.1824 6.53071C11.0362 6.11011 10.7428 5.75102 10.3521 5.51444C10.131 5.36318 9.86228 5.28964 9.5913 5.3062C9.32028 5.32276 9.06351 5.42842 8.86413 5.60536C8.06724 6.28467 7.90002 7.89464 8.47959 8.85205C8.55348 9.00818 8.66195 9.14691 8.79754 9.25857C8.93312 9.37024 9.09249 9.45213 9.26448 9.49847C9.43646 9.54485 9.61691 9.55457 9.79325 9.527C9.96958 9.49938 10.1375 9.43516 10.2852 9.33877C10.7172 9.01731 11.0341 8.57468 11.1919 8.07242C11.3497 7.57011 11.3406 7.03311 11.1657 6.53608L11.1824 6.53071Z" fill="#3A3B7B"/>
<path d="M17.3572 7.20457C17.2163 7.23366 17.0707 7.2354 16.929 7.20967C16.7874 7.18393 16.6525 7.13131 16.5324 7.05483C16.4273 6.99712 16.3368 6.9178 16.2675 6.82251C16.1982 6.72722 16.1517 6.6184 16.1315 6.5038C16.1112 6.38924 16.1177 6.2718 16.1504 6.1599C16.1831 6.04801 16.2413 5.94446 16.3207 5.8567C16.459 5.68035 16.6554 5.55409 16.8779 5.49835C17.459 5.3365 18.0572 5.23781 18.6613 5.20419C18.794 5.18937 18.9284 5.20015 19.0567 5.23589C19.1851 5.27167 19.3046 5.33163 19.4085 5.41238C19.5123 5.49308 19.5983 5.59291 19.6614 5.70595C19.7244 5.81899 19.7633 5.94299 19.7758 6.07067C19.95 6.69781 19.969 7.35537 19.8315 7.99087C19.33 10.0447 17.6024 10.7508 15.663 10.0929C15.1187 9.91698 14.6413 9.58923 14.2921 9.15152C13.8264 8.62439 13.4961 7.99967 13.328 7.32762C13.1918 6.72915 13.2067 6.10815 13.3716 5.51638C13.5364 4.92461 13.8463 4.37924 14.2754 3.92584C14.6827 3.43304 15.2112 3.04521 15.8135 2.79726C16.1941 2.59593 16.6395 2.53868 17.0619 2.6368C17.1577 2.66225 17.2446 2.71185 17.3138 2.78044C17.3829 2.84903 17.4316 2.93412 17.4549 3.02689C17.4783 3.11965 17.4753 3.21672 17.4463 3.30801C17.4174 3.3993 17.3635 3.4815 17.2903 3.54608C17.1512 3.66699 17 3.77448 16.8389 3.867C16.3435 4.16982 15.9123 4.56003 15.5683 5.01696C15.3428 5.31264 15.1875 5.65218 15.1134 6.01163C15.0392 6.37108 15.048 6.74176 15.1392 7.09763C15.2656 7.58283 15.5461 8.01835 15.9417 8.34385C17.1677 9.41361 18.7615 8.38128 18.4829 6.9211C18.0761 7.0174 17.7194 7.11901 17.3572 7.20457Z" fill="#3A3B7B"/>
<path d="M24.8472 10.2213C23.036 11.2911 20.974 10.2213 20.5226 7.9749C20.1938 6.3703 20.818 4.12383 23.0026 3.26804C23.4674 3.08988 23.9715 3.02732 24.4682 3.08618C25.065 3.19103 25.6125 3.47301 26.0334 3.89236C26.4543 4.31171 26.7275 4.84726 26.8144 5.42357C27.1822 7.33303 26.3463 9.3709 24.8472 10.2213ZM25.4769 6.62166C25.4764 6.17734 25.3126 5.74737 25.0144 5.40751C24.855 5.1973 24.6245 5.04669 24.3623 4.98131C24.1001 4.91598 23.8224 4.93993 23.5765 5.04917C22.5957 5.45564 21.9047 6.93188 22.1555 8.0177C22.1747 8.18809 22.2323 8.35242 22.3245 8.49919C22.4167 8.64595 22.5412 8.77161 22.6894 8.8674C22.8374 8.96314 23.0055 9.02673 23.1819 9.05366C23.3582 9.08054 23.5386 9.07017 23.7103 9.02324C24.2287 8.84941 24.6776 8.52456 24.9943 8.094C25.3111 7.66344 25.4798 7.14869 25.4769 6.62166Z" fill="#3A3B7B"/>
<path d="M28.6459 10.6706C28.6186 10.8664 28.5114 11.0437 28.3478 11.1636C28.1842 11.2834 27.9777 11.336 27.7738 11.3098C27.5698 11.2835 27.3851 11.1806 27.2602 11.0236C27.1353 10.8666 27.0805 10.6685 27.1078 10.4727C27.1352 10.2769 27.2424 10.0996 27.406 9.97974C27.5695 9.85987 27.776 9.80729 27.98 9.83353C28.1839 9.85978 28.3687 9.96268 28.4936 10.1197C28.6185 10.2767 28.6733 10.4749 28.6459 10.6706ZM28.1611 3.4552C28.2671 3.29983 28.4226 3.18152 28.6044 3.1179C28.7861 3.05428 28.9845 3.04877 29.1698 3.10219C29.3582 3.14743 29.5246 3.25341 29.6413 3.40238C29.758 3.55137 29.8177 3.73429 29.8107 3.92054C29.7861 4.21928 29.7395 4.51598 29.6714 4.80841C29.4875 5.79794 29.3091 6.78742 29.1141 7.76626C29.0249 8.15672 28.9079 8.53112 28.7797 8.92691C28.7351 9.05064 28.6606 9.16244 28.5624 9.25319C28.5013 9.32145 28.4233 9.3738 28.3355 9.40541C28.2477 9.43706 28.1531 9.44693 28.0603 9.43413C27.9675 9.42133 27.8796 9.38628 27.8047 9.33223C27.7298 9.27814 27.6703 9.2068 27.6317 9.12482C27.5654 8.97774 27.5294 8.81969 27.5258 8.65949C27.5258 7.99624 27.5258 7.32767 27.5704 6.65905C27.6461 5.7049 27.7951 4.75738 28.0162 3.82426C28.0422 3.69924 28.0913 3.57969 28.1611 3.47125V3.4552Z" fill="#3A3B7B"/>
<path fill-rule="evenodd" clip-rule="evenodd" d="M3.16231 14.9687C3.09651 15.1097 3.07847 15.2668 3.11062 15.4181C3.13201 15.6175 3.179 15.8136 3.2505 16.002C3.33978 16.2326 3.43968 16.4607 3.56285 16.7419C3.59118 16.8066 3.62078 16.8741 3.65176 16.9452C3.81787 17.326 4.02629 17.8128 4.3043 18.5172C4.38299 18.7174 4.45287 18.9191 4.52323 19.1223C4.55166 19.2043 4.58019 19.2867 4.60939 19.3692C4.71406 19.6627 4.89416 19.9263 5.13289 20.1352C5.23426 20.25 5.36872 20.3337 5.51949 20.3755C5.6732 20.4182 5.83669 20.4155 5.98877 20.3678C6.14084 20.32 6.27442 20.2295 6.37214 20.1079C6.46795 19.9886 6.52492 19.8449 6.536 19.6948C6.59816 19.4024 6.57694 19.0992 6.47449 18.8173C6.3119 18.3492 6.12668 17.8804 5.9131 17.4219L5.91212 17.4199C5.56076 16.7026 5.2036 15.9902 4.82954 15.2775L4.82674 15.2725C4.71724 15.0869 4.57493 14.9209 4.40622 14.782C4.29668 14.6581 4.1456 14.5745 3.97875 14.5457C3.80835 14.5163 3.6326 14.546 3.48289 14.6294C3.34126 14.707 3.22899 14.8258 3.16231 14.9687Z" fill="#3A3B7B"/>
<path fill-rule="evenodd" clip-rule="evenodd" d="M8.52883 13.2023C7.97791 13.0654 7.40254 13.0454 6.84283 13.1439C6.4093 13.1849 5.98293 13.2808 5.68686 13.471C5.53627 13.5677 5.41452 13.6919 5.3468 13.8499C5.27871 14.0086 5.27002 14.1902 5.32582 14.3925C5.4277 14.7631 5.56001 15.1235 5.69186 15.4826L5.71321 15.5408L5.71373 15.5421C6.11071 16.5855 6.51147 17.6254 6.91587 18.6617C6.96303 18.8251 7.02972 18.9826 7.1146 19.1312L7.11619 19.134C7.22831 19.3186 7.37211 19.4837 7.54153 19.6224C7.62626 19.6986 7.73105 19.7514 7.84466 19.775C7.9594 19.7987 8.07872 19.7918 8.18962 19.755C8.30057 19.7181 8.39881 19.6527 8.47368 19.5659C8.54734 19.4806 8.59557 19.3777 8.61328 19.2682C8.68638 18.9709 8.66296 18.6591 8.54612 18.3749C8.50967 18.2792 8.48107 18.1815 8.45092 18.0785C8.44087 18.0442 8.43069 18.0093 8.41994 17.9738C9.34564 17.6265 10.3306 17.1595 10.677 16.0731C10.8126 15.6977 10.8239 15.2912 10.7093 14.9093C10.5946 14.527 10.3593 14.1882 10.0358 13.9394C9.59549 13.5912 9.08116 13.3396 8.52883 13.2023ZM7.00173 14.5348C7.01996 14.5298 7.03832 14.5251 7.05674 14.5208C7.6594 14.4298 8.27599 14.551 8.79298 14.8619C9.02082 15.0139 9.11415 15.1829 9.13018 15.3455C9.14673 15.5129 9.08331 15.6943 8.95591 15.8687C8.71517 16.1981 8.27585 16.4617 7.87901 16.5109C7.58972 15.8714 7.29593 15.2061 7.00173 14.5348Z" fill="#3A3B7B"/>
<path d="M12.2018 12.0319C12.8578 11.741 13.6705 11.6908 14.3065 11.8953C14.4666 11.9401 14.6056 12.0369 14.6996 12.1693C14.793 12.3008 14.836 12.4593 14.8217 12.6178C14.8207 12.7206 14.7944 12.8218 14.7449 12.9131C14.6945 13.0061 14.6216 13.086 14.5322 13.1462C14.4429 13.2063 14.3397 13.245 14.2315 13.2588C14.1233 13.2727 14.0132 13.2613 13.9105 13.2256L13.9027 13.2229L13.8954 13.2192C13.8429 13.1928 13.7871 13.173 13.7293 13.16L13.7257 13.1592C13.2783 13.0452 12.8564 13.2342 12.7022 13.4663C12.6287 13.5771 12.6196 13.6888 12.6808 13.7905C12.7464 13.8993 12.9072 14.0215 13.2326 14.1086C13.3221 14.1322 13.4139 14.1549 13.5069 14.178C13.7642 14.242 14.0317 14.3084 14.2903 14.4005L14.2912 14.4009C15.4842 14.8365 15.9285 15.7388 15.7764 16.5874C15.6259 17.4267 14.8957 18.1904 13.7975 18.3706C13.3979 18.4556 12.9821 18.439 12.5911 18.3226C12.1992 18.2057 11.8459 17.9925 11.5664 17.704L11.5591 17.6965C11.4709 17.5878 11.4115 17.4602 11.3852 17.3247C11.361 17.2024 11.3737 17.0761 11.4219 16.9605C11.4697 16.8456 11.5507 16.7462 11.6551 16.6738C11.7655 16.5916 11.8985 16.5424 12.0377 16.5321C12.1765 16.5219 12.3153 16.5508 12.4372 16.6153C12.5589 16.6717 12.6721 16.7437 12.7737 16.8293L12.7756 16.8309C12.9553 16.9887 13.1728 17.0298 13.3813 16.9917C13.5929 16.9531 13.7919 16.8329 13.9198 16.6735C14.047 16.5151 14.098 16.3269 14.0374 16.1442C13.9765 15.9602 13.7932 15.754 13.3906 15.5817C13.2853 15.5388 13.1762 15.5042 13.0627 15.4705C13.0321 15.4614 13.001 15.4524 12.9695 15.4432C12.8855 15.4187 12.7991 15.3936 12.7145 15.3658C12.6561 15.3467 12.5983 15.3286 12.541 15.3107C12.3844 15.2618 12.2317 15.214 12.0847 15.15C11.7649 15.0455 11.4886 14.8449 11.297 14.5777C11.1045 14.3095 11.0077 13.9888 11.0208 13.6634C11.0219 12.8705 11.5422 12.3243 12.2018 12.0319Z" fill="#3A3B7B"/>
<path d="M20.5196 11.9475C20.3923 11.8878 20.2517 11.8595 20.1102 11.8651C19.9688 11.8707 19.831 11.9099 19.7093 11.9794C19.5884 12.0484 19.4872 12.1451 19.4147 12.2607C19.3482 12.3581 19.3021 12.467 19.2792 12.5814C19.2562 12.6957 19.2568 12.8131 19.2808 12.9271C19.3045 13.0737 19.3307 13.2162 19.3567 13.3567C19.3996 13.5892 19.4414 13.8165 19.469 14.0483L19.47 14.0542C19.5328 14.4177 19.5656 14.7853 19.5686 15.1537L19.5689 15.1589C19.5903 15.5568 19.4491 15.9469 19.1754 16.2464L19.1711 16.2518C19.082 16.3613 18.963 16.4449 18.8272 16.4932C18.6915 16.5415 18.5445 16.5526 18.4026 16.5252C18.2606 16.4979 18.1294 16.4332 18.0236 16.3384C17.9178 16.2435 17.8415 16.122 17.8034 15.988C17.7221 15.7055 17.675 15.415 17.663 15.1222L17.8019 12.9997C17.804 12.972 17.8063 12.9436 17.8087 12.9149C17.814 12.8504 17.8194 12.7848 17.8217 12.7235C17.8249 12.6334 17.8221 12.5407 17.8003 12.453C17.7779 12.3634 17.7353 12.2781 17.6598 12.2055C17.585 12.1336 17.484 12.0805 17.357 12.0444C17.1273 11.9806 16.9331 11.9826 16.7712 12.0486C16.6093 12.1145 16.4983 12.2369 16.4198 12.3783C16.3419 12.5185 16.2919 12.6845 16.254 12.8507C16.2259 12.9741 16.2033 13.1036 16.1819 13.2269C16.1745 13.2694 16.1672 13.3111 16.1599 13.3516L16.1597 13.3528C16.0449 14.0288 16.0107 14.7152 16.0578 15.3987C16.0666 15.7681 16.1469 16.1327 16.2946 16.4739C16.4612 16.9141 16.763 17.2955 17.1601 17.5678C17.558 17.8406 18.0329 17.991 18.5219 17.9989C19.0108 18.0068 19.4908 17.872 19.8981 17.6123C20.3048 17.353 20.62 16.9813 20.802 16.5464C21.0566 15.9924 21.1761 15.39 21.1514 14.7849C21.1365 14.3432 21.1114 13.8981 21.0865 13.4553C21.0743 13.238 21.0621 13.0213 21.0511 12.8058C21.0456 12.5898 20.9714 12.3805 20.8384 12.2062C20.7561 12.0959 20.6465 12.007 20.5196 11.9475Z" fill="#3A3B7B"/>
<path d="M25.0222 15.2754C25.0093 15.2912 24.9957 15.3074 24.9815 15.3244C24.878 14.7515 24.7821 14.1787 24.6861 13.6051C24.6516 13.3993 24.617 13.1926 24.5822 12.9866L24.5782 12.9636L24.5655 12.9437C24.5415 12.9063 24.5392 12.8697 24.5392 12.7915V12.7825L24.5377 12.7735C24.5117 12.6121 24.4356 12.4618 24.3194 12.3424C24.2035 12.2234 24.053 12.1405 23.8874 12.1046C23.7221 12.0654 23.5484 12.0741 23.3881 12.1294C23.2283 12.1846 23.0889 12.2838 22.9875 12.4145C22.9032 12.5148 22.8341 12.6261 22.7823 12.7451C22.6648 13.0012 22.5462 13.2581 22.4273 13.5156L22.4252 13.52C22.1284 14.1629 21.8296 14.8101 21.5395 15.4624L21.5386 15.4645C21.3605 15.8874 21.2134 16.3331 21.0669 16.7774C21.0376 16.866 21.0084 16.9547 20.9789 17.0431C20.926 17.1833 20.9029 17.3322 20.9108 17.4811C20.9012 17.6143 20.9344 17.7473 21.0061 17.8619C21.0792 17.9789 21.1887 18.071 21.3191 18.1251C21.4574 18.1833 21.6119 18.1957 21.7584 18.1602C21.9045 18.1249 22.0342 18.0439 22.1272 17.9302C22.2459 17.79 22.348 17.6371 22.4313 17.4752C22.6771 16.9927 22.912 16.5042 23.1458 16.0179C23.2363 15.8298 23.3242 15.6614 23.4242 15.4779C23.4311 15.5005 23.4381 15.5226 23.4453 15.5447C23.5501 15.9877 23.7271 16.4119 23.9696 16.802C24.0155 16.8846 24.0794 16.9568 24.157 17.0137C24.2355 17.0712 24.3261 17.1116 24.4226 17.1321C24.519 17.1526 24.6189 17.1527 24.7154 17.1324C24.8117 17.1121 24.9026 17.0717 24.9811 17.0144L25.1366 16.9027L26.3435 15.927L26.2721 16.3635C26.1742 16.9636 26.077 17.5586 25.9737 18.1538C25.9061 18.4176 25.9062 18.6931 25.974 18.9568C26.0033 19.1052 26.0781 19.2418 26.1888 19.3493C26.3004 19.4576 26.4433 19.5312 26.599 19.5605C26.7547 19.5899 26.9161 19.5736 27.062 19.5138C27.2059 19.455 27.3282 19.3565 27.4138 19.2311C27.6128 18.9941 27.7366 18.7072 27.7706 18.4046C27.8219 17.9772 27.8797 17.544 27.9376 17.1109C28.0043 16.6117 28.071 16.1126 28.1273 15.6232L28.1275 15.6217C28.1817 15.0859 28.2079 14.5479 28.2061 14.0095C28.218 13.8394 28.1739 13.6699 28.0798 13.5251C27.9855 13.3798 27.8457 13.2668 27.6806 13.2021C27.5088 13.1272 27.3165 13.1071 27.1319 13.145C26.9486 13.1826 26.7826 13.2754 26.6581 13.4098C26.4355 13.6074 26.2267 13.8188 26.0329 14.0427L26.0316 14.0443C25.8202 14.2972 25.6101 14.5551 25.4014 14.8113C25.2746 14.967 25.148 15.1224 25.0222 15.2754Z" fill="#3A3B7B"/>
</g>
<defs>
<clipPath id="clip0_4_438">
<rect width="32.7153" height="20.186" fill="white" transform="translate(0.1604 0.219727)"/>
</clipPath>
</defs>
</svg>
