<svg width="29" height="20" viewBox="0 0 29 20" fill="none" xmlns="http://www.w3.org/2000/svg">
<g clip-path="url(#clip0_4_454)">
<path d="M27.0806 1.5032C27.0806 1.82756 27.3467 2.09051 27.6751 2.09051H28.2697C28.5981 2.09051 28.8642 1.82756 28.8642 1.5032C28.8642 1.17884 28.5981 0.915894 28.2697 0.915894H27.6751C27.3467 0.915894 27.0806 1.17884 27.0806 1.5032Z" fill="#212326"/>
<path d="M9.83839 19.7098H12.7267L11.8858 18.8792C11.6628 18.6589 11.3604 18.5352 11.045 18.5352H9.83839C5.24126 18.5352 1.51456 14.8539 1.51456 10.3128C1.51456 5.77176 5.24126 2.09052 9.83839 2.09051H19.3513C23.9485 2.09051 27.6752 5.77176 27.6752 10.3128C27.6752 14.8539 23.9485 18.5352 19.3513 18.5352H15.7927C15.3197 18.5352 14.866 18.3495 14.5315 18.0191L13.5464 17.046C12.9889 16.4953 12.2327 16.1859 11.4443 16.1859H9.83839C6.55471 16.1859 3.8928 13.5565 3.8928 10.3128C3.8928 7.0692 6.55471 4.43975 9.83839 4.43975H19.3513C22.635 4.43975 25.2969 7.0692 25.2969 10.3128C25.2969 13.5565 22.635 16.1859 19.3513 16.1859H17.0664C16.5933 16.1859 16.1396 16.0003 15.8051 15.6699L14.82 14.6968C14.2625 14.1461 13.5063 13.8367 12.7179 13.8367H9.83839C7.86821 13.8367 6.27103 12.259 6.27103 10.3128C6.27103 8.36668 7.86821 6.78898 9.83839 6.78898H19.3513C21.3215 6.78898 22.9187 8.36668 22.9187 10.3128C22.9187 12.2353 21.3602 13.7982 19.4233 13.836L19.4229 13.8367H18.5528C18.0797 13.8367 17.626 13.651 17.2915 13.3206L16.3064 12.3476C15.849 11.8957 15.2578 11.6063 14.6247 11.517L14.5949 11.4874H9.83839C9.18166 11.4874 8.64927 10.9615 8.64927 10.3128C8.64927 9.66411 9.18166 9.13821 9.83839 9.13821H19.3513C20.0081 9.13821 20.5405 9.66411 20.5405 10.3128C20.5405 10.9615 20.0081 11.4874 19.3513 11.4874H16.9731L17.814 12.318C18.0369 12.5383 18.3394 12.6621 18.6548 12.6621H19.3513C20.6648 12.6621 21.7296 11.6103 21.7296 10.3128C21.7296 9.0154 20.6648 7.9636 19.3513 7.9636H9.83839C8.52494 7.9636 7.46015 9.0154 7.46015 10.3128C7.46015 11.6103 8.52494 12.6621 9.83839 12.6621H14.2043C14.6774 12.6621 15.1311 12.8477 15.4656 13.1781L16.4507 14.1512C17.0082 14.7019 17.7643 15.0113 18.5528 15.0113H19.6486V15.0023C22.1371 14.8507 24.1078 12.8091 24.1078 10.3128C24.1078 7.71796 21.9782 5.61436 19.3513 5.61436H9.83839C7.21148 5.61436 5.08191 7.71796 5.08191 10.3128C5.08191 12.9077 7.21148 15.0113 9.83839 15.0113H12.7179C13.191 15.0113 13.6447 15.1969 13.9792 15.5273L14.9643 16.5004C15.5218 17.0511 16.2779 17.3605 17.0664 17.3605H19.3513C23.2917 17.3605 26.4861 14.2052 26.4861 10.3128C26.4861 6.42048 23.2917 3.26513 19.3513 3.26513H9.83839C5.89798 3.26513 2.70368 6.42048 2.70368 10.3128C2.70368 14.2052 5.89798 17.3605 9.83839 17.3605H11.4443C11.9173 17.3605 12.371 17.5462 12.7055 17.8766L13.6907 18.8497C14.2482 19.4004 15.0043 19.7098 15.7927 19.7098H19.3513C24.6052 19.7098 28.8643 15.5026 28.8643 10.3128C28.8643 5.12304 24.6052 0.915893 19.3513 0.915894L9.83839 0.915895C4.58453 0.915896 0.325439 5.12305 0.325439 10.3128C0.32544 15.5026 4.58453 19.7098 9.83839 19.7098Z" fill="#212326"/>
</g>
<defs>
<clipPath id="clip0_4_454">
<rect width="28.5388" height="18.7939" fill="white" transform="translate(0.325439 0.915894)"/>
</clipPath>
</defs>
</svg>
