<svg width="46" height="40" viewBox="0 0 46 40" fill="none" xmlns="http://www.w3.org/2000/svg">
<path d="M45.9187 26.8835C45.9187 33.8032 40.3092 39.4127 33.3894 39.4127L14.5956 39.4127C12.6734 39.4127 11.1152 37.8545 11.1152 35.9324L11.1152 12.266C11.1152 8.42172 14.2316 5.30531 18.0759 5.30531L42.4384 5.30532C44.3605 5.30532 45.9187 6.86352 45.9187 8.78566L45.9187 26.8835Z" fill="#E8F5E9"/>
<path d="M17.3728 7.39355C14.887 7.39355 12.8633 9.43574 12.8633 11.9322C12.8633 13.5114 13.6743 14.9059 14.8988 15.7187C13.4198 16.2132 12.14 17.1375 11.2013 18.3467C10.6824 17.9475 10.1025 17.6265 9.47735 17.3964C10.4253 16.6927 11.0448 15.5622 11.0448 14.2916C11.0448 12.1743 9.33239 10.4411 7.22795 10.4411C5.12352 10.4411 3.41113 12.1743 3.41113 14.2916C3.41113 15.5629 4.03112 16.6939 4.97987 17.3977C2.46805 18.3246 0.674133 20.7513 0.674133 23.6073V25.6135C0.67439 25.7664 0.735566 25.9129 0.844036 26.0206C0.952505 26.1286 1.09928 26.1887 1.25222 26.1882H10.054C10.0753 26.1905 10.0967 26.1918 10.118 26.1916H24.6282C24.6495 26.1918 24.6711 26.1905 24.6922 26.1882H33.4946C33.811 26.1869 34.0673 25.9301 34.068 25.6135V23.6073C34.068 20.7513 32.2772 18.3246 29.7667 17.3974C30.7155 16.6939 31.3355 15.5626 31.3355 14.2913C31.3355 12.1741 29.6231 10.4408 27.5186 10.4408C25.4143 10.4408 23.7018 12.1741 23.7018 14.2913C23.7018 15.5619 24.3215 16.6926 25.2695 17.3962C24.6431 17.6267 24.0629 17.9488 23.5432 18.349C22.605 17.1391 21.327 16.2135 19.848 15.7187C21.0723 14.9059 21.8836 13.5114 21.8836 11.9322C21.8836 9.43574 19.8588 7.39355 17.373 7.39355H17.3728ZM17.3728 8.5451C19.232 8.5451 20.7308 10.054 20.7308 11.9322C20.7308 13.7957 19.2554 15.2899 17.4168 15.3138C17.4021 15.3138 17.3877 15.3118 17.3728 15.3118C17.3579 15.3118 17.3438 15.3138 17.3289 15.3138C15.4903 15.2902 14.0158 13.7958 14.0158 11.9322C14.0158 10.0537 15.5134 8.5451 17.3726 8.5451H17.3728ZM7.22802 11.5926C8.70319 11.5926 9.89329 12.7898 9.89329 14.2915C9.89329 15.7831 8.71858 16.9753 7.2573 16.9915C7.24753 16.9915 7.23802 16.9904 7.228 16.9904C7.21823 16.9904 7.20872 16.9915 7.1987 16.9915C5.73742 16.9753 4.5627 15.7829 4.5627 14.2915C4.5627 12.7899 5.75281 11.5926 7.22798 11.5926H7.22802ZM27.5183 11.5926C28.9935 11.5926 30.1836 12.7898 30.1836 14.2915C30.1836 15.7831 29.0089 16.9753 27.5476 16.9915C27.5378 16.9915 27.5283 16.9904 27.5183 16.9904C27.5085 16.9904 27.499 16.9915 27.489 16.9915C26.0277 16.9753 24.853 15.7829 24.853 14.2915C24.853 12.7899 26.0431 11.5926 27.5182 11.5926H27.5183ZM17.3287 16.4653C17.3434 16.4656 17.3578 16.4674 17.3727 16.4674C17.3873 16.4674 17.4017 16.4653 17.4166 16.4653C21.1039 16.489 24.0548 19.4653 24.0548 23.191L24.0546 25.0397H10.6914V23.191C10.6914 19.4649 13.6414 16.489 17.3282 16.4653H17.3287ZM7.18393 18.1443C7.19858 18.1446 7.21298 18.1464 7.22789 18.1464C7.24279 18.1464 7.25693 18.1443 7.27184 18.1443C8.519 18.1544 9.65719 18.5844 10.5635 19.3038C9.91497 20.4513 9.53993 21.7758 9.53993 23.1913V25.0356H1.82522V23.6072C1.82522 20.5792 4.20596 18.168 7.1838 18.1441L7.18393 18.1443ZM27.4742 18.1443C27.4891 18.1446 27.5032 18.1464 27.5182 18.1464C27.5331 18.1464 27.5472 18.1443 27.5621 18.1443C30.5399 18.168 32.9207 20.5796 32.9207 23.6075V25.0356H25.202L25.2018 23.1913C25.2018 21.7766 24.8278 20.4531 24.1805 19.3059C25.0871 18.5854 26.2261 18.1543 27.4743 18.1443H27.4742Z" fill="#103E13"/>
</svg>
