<svg width="34" height="34" viewBox="0 0 34 34" fill="none" xmlns="http://www.w3.org/2000/svg">
<path d="M4.13263 11.6342V11.9822H4.48066H29.5392H29.8872V11.6342V10.068C29.8872 9.28345 29.5755 8.53099 29.0207 7.97621C28.4659 7.42142 27.7135 7.10974 26.9289 7.10974H7.09093C6.30634 7.10974 5.55388 7.42142 4.99909 7.97621C4.44431 8.53099 4.13263 9.28345 4.13263 10.068V11.6342ZM29.8872 13.7224V13.3744H29.5392H4.48066H4.13263V13.7224V23.6414C4.13263 24.426 4.44431 25.1784 4.99909 25.7332C5.55388 26.288 6.30634 26.5997 7.09093 26.5997H26.9289C27.7135 26.5997 28.4659 26.288 29.0207 25.7332C29.5755 25.1784 29.8872 24.426 29.8872 23.6414V13.7224ZM2.74049 10.068C2.74049 8.91423 3.19884 7.80768 4.0147 6.99182C4.83057 6.17595 5.93712 5.7176 7.09093 5.7176H26.9289C28.0827 5.7176 29.1893 6.17595 30.0051 6.99182C30.821 7.80768 31.2793 8.91423 31.2793 10.068V23.6414C31.2793 24.7952 30.821 25.9017 30.0051 26.7176C29.1893 27.5335 28.0827 27.9918 26.9289 27.9918H7.09093C5.93712 27.9918 4.83057 27.5335 4.0147 26.7176C3.19884 25.9017 2.74049 24.7952 2.74049 23.6414V10.068ZM22.2304 20.3351H25.3627C25.5474 20.3351 25.7244 20.4084 25.8549 20.5389C25.9855 20.6695 26.0588 20.8465 26.0588 21.0311C26.0588 21.2157 25.9855 21.3928 25.8549 21.5233C25.7244 21.6539 25.5474 21.7272 25.3627 21.7272H22.2304C22.0458 21.7272 21.8688 21.6539 21.7382 21.5233C21.6077 21.3928 21.5344 21.2157 21.5344 21.0311C21.5344 20.8465 21.6077 20.6695 21.7382 20.5389C21.8688 20.4084 22.0458 20.3351 22.2304 20.3351Z" fill="#4CAF4F" stroke="#4CAF4F" stroke-width="0.696069"/>
</svg>
