<svg width="12" height="13" viewBox="0 0 12 13" fill="none" xmlns="http://www.w3.org/2000/svg">
<path fill-rule="evenodd" clip-rule="evenodd" d="M11.4608 0.766873C11.6026 0.908682 11.6506 1.11919 11.5844 1.30848L7.93002 11.7495C7.8593 11.9516 7.67243 12.09 7.45855 12.0987C7.24468 12.1074 7.04715 11.9847 6.96021 11.7891L4.95355 7.2741L0.438569 5.26744C0.242967 5.18051 0.120251 4.98298 0.128977 4.7691C0.137702 4.55523 0.2761 4.36835 0.478135 4.29764L10.9192 0.643276C11.1085 0.577025 11.319 0.625064 11.4608 0.766873ZM5.97174 6.99421L7.37953 10.1617L9.84316 3.12279L5.97174 6.99421ZM9.10487 2.38449L2.06592 4.84813L5.23345 6.25592L9.10487 2.38449Z" fill="white"/>
</svg>
