<svg width="12" height="10" viewBox="0 0 12 10" fill="none" xmlns="http://www.w3.org/2000/svg">
<path fill-rule="evenodd" clip-rule="evenodd" d="M5.47768 3.19318L5.50105 3.57855L5.11154 3.53136C3.69373 3.35047 2.45509 2.73702 1.40341 1.70675L0.889261 1.19555L0.756828 1.57305C0.476381 2.41457 0.655555 3.30328 1.23982 3.901C1.55143 4.23131 1.48131 4.2785 0.943792 4.08188C0.756828 4.01897 0.593234 3.97178 0.577653 3.99537C0.523122 4.05043 0.710087 4.76611 0.8581 5.04924C1.06064 5.44247 1.47352 5.82784 1.92535 6.05592L2.30707 6.23681L1.85524 6.24467C1.41899 6.24467 1.40341 6.25254 1.45015 6.41769C1.60596 6.9289 2.22138 7.47156 2.90692 7.7075L3.38991 7.87266L2.96924 8.12433C2.34602 8.4861 1.61375 8.69059 0.88147 8.70632C0.530912 8.71418 0.242676 8.74564 0.242676 8.76923C0.242676 8.84788 1.19308 9.2883 1.74618 9.46132C3.40549 9.97253 5.3764 9.75232 6.85654 8.87934C7.90821 8.25803 8.95989 7.02327 9.45067 5.82784C9.71553 5.1908 9.9804 4.02683 9.9804 3.46844C9.9804 3.10666 10.0038 3.05948 10.44 2.62692C10.6971 2.37525 10.9386 2.09999 10.9853 2.02134C11.0632 1.87191 11.0554 1.87191 10.6581 2.00561C9.99598 2.24155 9.9025 2.21009 10.2297 1.85618C10.4712 1.60451 10.7594 1.14836 10.7594 1.01466C10.7594 0.991066 10.6426 1.03039 10.5101 1.10117C10.3699 1.17982 10.0583 1.29779 9.8246 1.36857L9.40393 1.50227L9.02221 1.24274C8.81187 1.10117 8.51585 0.943878 8.36004 0.89669C7.96274 0.786585 7.35511 0.802314 6.99676 0.928149C6.02299 1.28206 5.40756 2.19436 5.47768 3.19318Z" fill="white"/>
</svg>
