<svg width="13" height="9" viewBox="0 0 13 9" fill="none" xmlns="http://www.w3.org/2000/svg">
<path fill-rule="evenodd" clip-rule="evenodd" d="M10.8638 0.44925C11.3749 0.589515 11.7775 1.0028 11.9141 1.52764C12.1624 2.47885 12.1624 4.46356 12.1624 4.46356C12.1624 4.46356 12.1624 6.4482 11.9141 7.39948C11.7775 7.92432 11.3749 8.33761 10.8638 8.47794C9.93744 8.73279 6.22257 8.73279 6.22257 8.73279C6.22257 8.73279 2.5077 8.73279 1.5813 8.47794C1.07014 8.33761 0.66758 7.92432 0.530965 7.39948C0.282776 6.4482 0.282776 4.46356 0.282776 4.46356C0.282776 4.46356 0.282776 2.47885 0.530965 1.52764C0.66758 1.0028 1.07014 0.589515 1.5813 0.44925C2.5077 0.194336 6.22257 0.194336 6.22257 0.194336C6.22257 0.194336 9.93744 0.194336 10.8638 0.44925ZM5.10887 2.79296V6.50533L8.07877 4.64921L5.10887 2.79296Z" fill="white"/>
</svg>
